<svg xmlns="http://www.w3.org/2000/svg" width="23.314" height="29.277" viewBox="0 0 23.314 29.277">
  <g id="person-badge-fill" transform="translate(-0.399 2.639)">
    <g id="Group_22" data-name="Group 22">
      <path id="Path_49" data-name="Path 49" d="M2.5,3.66A3.778,3.778,0,0,1,6.386,0H21.928a3.778,3.778,0,0,1,3.886,3.66V25.618a3.778,3.778,0,0,1-3.886,3.66H6.386A3.778,3.778,0,0,1,2.5,25.618Zm8.743,0a.944.944,0,0,0-.971.915.944.944,0,0,0,.971.915h5.828a.944.944,0,0,0,.971-.915.944.944,0,0,0-.971-.915Zm2.914,16.469a5.667,5.667,0,0,0,5.828-5.49,5.667,5.667,0,0,0-5.828-5.49,5.667,5.667,0,0,0-5.828,5.49A5.667,5.667,0,0,0,14.157,20.128Zm9.714,5.042c-1.658-1.7-4.618-3.212-9.714-3.212S6.1,23.469,4.443,25.17v.448a1.889,1.889,0,0,0,1.943,1.83H21.928a1.889,1.889,0,0,0,1.943-1.83Z" transform="translate(-2.101 -2.639)" fill="#c7d98a" fill-rule="evenodd"/>
    </g>
  </g>
</svg>
