<?xml version="1.0" standalone="no"?>
<!DOCTYPE svg PUBLIC "-//W3C//DTD SVG 20010904//EN"
 "http://www.w3.org/TR/2001/REC-SVG-20010904/DTD/svg10.dtd">
<svg version="1.0" xmlns="http://www.w3.org/2000/svg"
 width="800.000000pt" height="800.000000pt" viewBox="0 0 800.000000 800.000000"
 preserveAspectRatio="xMidYMid meet">

<g transform="translate(0.000000,800.000000) scale(0.100000,-0.100000)"
fill="#000000" stroke="none">
<path d="M2260 7986 c0 -7 17 -20 38 -28 l37 -15 -30 -7 c-99 -24 -241 -78
-390 -149 -178 -85 -192 -93 -183 -103 4 -3 94 31 202 75 201 84 273 105 386
115 l65 6 -85 -25 c-152 -46 -570 -227 -570 -246 0 -16 18 -10 150 46 225 94
385 135 525 134 48 0 45 -2 -55 -29 -96 -25 -376 -122 -387 -134 -3 -2 -2 -9
1 -14 3 -5 55 6 118 25 143 43 378 90 488 97 l85 6 -80 -20 c-112 -28 -325
-101 -325 -111 0 -12 4 -12 111 15 115 29 257 46 376 45 l88 -1 -106 -23
c-142 -31 -279 -73 -279 -86 0 -7 12 -8 30 -4 66 15 191 32 183 26 -4 -4 -33
-15 -63 -25 -69 -24 -230 -105 -230 -117 0 -14 13 -11 82 20 94 43 310 93 390
90 18 0 15 -4 -17 -19 -22 -10 -92 -48 -154 -84 -63 -36 -119 -66 -123 -66 -4
0 -8 -4 -8 -10 0 -18 28 -10 127 36 87 41 233 97 233 90 0 -1 -40 -26 -89 -55
-91 -54 -166 -110 -158 -118 3 -2 43 18 91 45 80 46 226 102 306 117 23 4 8
-6 -44 -29 -127 -57 -260 -145 -243 -162 4 -4 51 14 105 39 86 41 174 77 190
77 3 0 -23 -18 -57 -40 -65 -42 -161 -126 -161 -141 0 -18 22 -8 72 32 58 46
144 91 201 107 20 6 37 9 37 7 0 -3 -28 -23 -62 -46 -74 -50 -201 -175 -193
-190 4 -5 34 16 68 47 119 107 278 189 355 182 55 -5 48 -21 -18 -42 -33 -10
-93 -39 -134 -65 -77 -47 -206 -155 -206 -172 0 -18 21 -9 71 31 102 80 261
140 377 140 63 0 68 -15 10 -30 -146 -37 -368 -130 -368 -155 0 -8 2 -15 4
-15 2 0 51 16 108 35 99 33 247 69 254 62 2 -2 -22 -14 -54 -27 -73 -30 -192
-98 -192 -110 0 -14 17 -12 43 4 52 34 204 76 277 76 45 0 69 -4 65 -10 -3 -5
-16 -10 -29 -10 -56 0 -306 -104 -306 -128 0 -8 6 -12 13 -9 119 45 188 61
282 61 65 1 107 -3 120 -12 18 -11 16 -12 -17 -6 -79 13 -302 -47 -339 -92
-19 -23 -6 -26 42 -8 92 33 259 28 351 -10 29 -13 26 -13 -39 -9 -89 7 -273
-15 -273 -31 0 -8 39 -16 118 -24 124 -12 205 -31 237 -57 20 -16 20 -16 -2
-10 -51 14 -143 25 -209 25 -60 0 -84 6 -160 39 -109 47 -196 68 -261 62 -22
-2 -14 -17 17 -32 28 -13 20 -14 -103 -15 -151 -1 -207 -9 -207 -28 0 -10 26
-15 94 -20 159 -12 157 -22 -5 -19 -169 4 -360 -14 -367 -34 -2 -9 10 -13 40
-14 l43 -1 -45 -10 c-25 -6 -125 -30 -224 -54 -98 -24 -179 -44 -181 -44 -1 0
-5 -8 -7 -18 -4 -12 -25 -24 -67 -35 -40 -11 -61 -22 -58 -30 2 -6 8 -11 13
-10 215 39 350 53 243 25 -110 -29 -269 -64 -330 -72 -37 -5 -104 -21 -150
-36 -104 -32 -300 -131 -297 -149 2 -7 -47 -38 -117 -74 -122 -63 -215 -123
-215 -141 0 -16 18 -12 63 17 74 47 332 152 344 140 6 -6 -128 -87 -155 -93
-70 -17 -179 -83 -315 -191 -78 -63 -81 -89 -4 -39 103 65 100 57 -15 -53
-120 -114 -165 -167 -154 -178 4 -4 29 15 57 43 l50 49 -61 -139 c-80 -182
-65 -200 24 -29 37 70 78 142 92 158 22 27 21 21 -12 -50 -56 -122 -79 -181
-123 -309 -46 -132 -44 -126 -32 -126 5 0 19 26 31 58 29 72 142 304 146 299
2 -1 -7 -36 -20 -77 -36 -112 -51 -199 -38 -212 8 -8 13 -8 16 3 2 8 14 47 26
87 28 98 116 266 197 380 36 51 68 91 70 89 2 -2 -10 -41 -27 -87 -30 -81
-100 -313 -100 -331 0 -5 4 -9 10 -9 5 0 14 19 20 42 23 82 102 275 154 374
45 85 124 214 131 214 1 0 -39 -82 -89 -182 -107 -214 -166 -369 -166 -432 0
-68 15 -63 33 10 9 36 29 91 45 122 84 168 181 346 225 412 59 88 221 250 249
250 17 0 15 -5 -13 -32 -56 -56 -125 -143 -163 -206 -55 -91 -208 -434 -197
-445 11 -11 81 95 160 245 69 131 128 215 210 302 95 99 120 107 45 15 -88
-109 -175 -242 -230 -351 -24 -48 -44 -90 -44 -93 0 -21 28 12 103 123 108
160 240 325 309 387 45 40 178 140 228 170 8 5 -18 -29 -57 -76 -39 -46 -130
-162 -203 -258 -188 -248 -157 -243 66 11 236 269 382 413 399 396 3 -3 -20
-34 -52 -69 -60 -68 -194 -245 -258 -342 -25 -38 -35 -61 -28 -68 6 -6 56 44
146 149 136 158 272 296 357 362 l45 35 -38 -50 c-20 -27 -71 -97 -111 -155
-41 -58 -102 -141 -135 -185 -69 -90 -126 -191 -113 -199 5 -3 27 21 49 52 22
31 80 102 128 157 48 55 122 145 165 201 74 96 222 244 244 244 6 0 -12 -24
-40 -52 -68 -71 -103 -116 -228 -295 -98 -141 -120 -180 -97 -171 4 2 50 55
101 118 99 121 132 161 214 250 57 63 52 51 -14 -35 -57 -74 -110 -161 -144
-239 -30 -68 -30 -66 -13 -66 6 0 24 24 39 53 60 113 266 356 390 458 l53 44
-51 -60 c-28 -33 -99 -123 -159 -200 -59 -77 -121 -154 -137 -172 -45 -47 -31
-59 26 -22 30 20 102 97 190 203 171 205 234 256 316 256 l52 0 -93 -61 c-141
-92 -399 -362 -399 -417 0 -22 13 -11 82 69 74 85 340 319 363 319 7 0 -73
-94 -155 -183 -30 -33 -72 -70 -93 -84 -69 -44 -19 -50 64 -8 19 10 90 76 159
148 115 119 223 207 257 207 22 0 14 -14 -26 -42 -99 -70 -419 -377 -403 -387
7 -4 -7 -16 -41 -33 -28 -14 -83 -54 -122 -88 -38 -34 -89 -71 -112 -83 -74
-36 -43 -53 33 -18 23 11 78 44 122 75 78 55 127 80 187 97 28 8 29 7 10 -7
-11 -8 -60 -38 -110 -66 -120 -66 -251 -168 -355 -272 -93 -95 -92 -118 1 -31
62 57 156 126 224 164 38 22 39 22 15 1 -187 -159 -220 -192 -352 -354 -55
-66 -70 -96 -49 -96 5 0 24 17 42 38 18 20 29 28 25 17 -35 -84 -40 -115 -17
-115 4 0 16 18 26 41 19 41 121 151 160 172 11 6 0 -14 -26 -44 -25 -30 -76
-97 -113 -149 -38 -52 -79 -106 -92 -121 -27 -28 -30 -39 -11 -39 7 0 46 34
87 75 41 41 76 73 78 71 2 -2 -31 -48 -74 -102 -87 -112 -106 -145 -85 -152 8
-3 -9 -27 -49 -67 -80 -81 -62 -97 23 -20 115 105 123 104 46 -2 -84 -116 -92
-130 -80 -137 5 -3 41 37 80 89 39 52 74 95 76 95 27 0 -74 -164 -192 -312
-29 -37 -53 -69 -53 -72 0 -19 28 8 125 119 60 69 111 125 113 125 4 0 0 -6
-55 -91 -47 -74 -143 -265 -143 -286 0 -30 22 -9 51 50 39 77 124 211 146 229
20 16 23 24 -64 -152 -76 -154 -153 -333 -153 -356 0 -36 24 2 125 207 63 127
111 212 113 201 2 -10 -13 -51 -33 -90 -19 -39 -61 -136 -91 -214 -31 -79 -58
-149 -61 -155 -3 -7 1 -13 9 -13 8 0 40 53 73 120 61 123 84 156 41 57 -27
-61 -56 -162 -56 -197 0 -42 22 -14 45 57 12 39 40 109 61 154 36 77 39 81 44
53 4 -19 -2 -48 -17 -82 -34 -78 -103 -281 -103 -303 0 -42 20 -13 60 86 42
105 58 130 40 64 -5 -19 -14 -79 -20 -134 -6 -55 -13 -110 -15 -122 -6 -24 13
-33 20 -10 2 6 23 79 46 160 l43 149 23 -47 c18 -35 28 -45 41 -41 12 4 33
-10 67 -44 27 -28 53 -50 57 -50 18 0 6 24 -39 78 -73 88 -113 156 -128 217
-7 30 -11 55 -10 55 1 0 21 -29 44 -65 23 -36 65 -88 92 -116 46 -47 68 -57
76 -33 2 6 -37 73 -87 149 -85 132 -138 240 -125 254 4 3 16 -8 28 -24 62 -85
117 -128 117 -92 0 7 -29 65 -65 128 -60 105 -86 165 -48 111 9 -13 33 -47 53
-75 38 -55 70 -73 70 -39 0 11 -19 64 -41 118 -62 147 -89 233 -78 240 6 3 11
4 12 3 1 -2 14 -26 28 -54 31 -60 94 -114 111 -97 9 9 2 31 -26 91 -54 116
-63 179 -47 358 8 88 19 158 28 173 l14 25 -5 -25 c-42 -209 -24 -435 43 -529
22 -30 45 -40 55 -22 3 4 -8 73 -24 152 -33 159 -37 247 -19 425 8 77 17 119
31 142 28 45 33 34 12 -25 -25 -68 -25 -275 -1 -405 11 -54 23 -101 28 -104 6
-3 17 0 25 7 13 10 14 47 12 238 l-3 226 44 135 c38 114 75 189 88 177 1 -2
-13 -43 -32 -91 -36 -87 -85 -271 -85 -314 0 -46 23 -15 55 73 36 102 102 256
115 269 5 5 3 -15 -5 -44 -35 -133 -25 -228 11 -102 18 64 85 225 90 219 3 -2
-3 -21 -11 -41 -9 -21 -27 -87 -40 -147 -13 -60 -31 -122 -40 -138 -18 -35
-18 -41 -5 -41 19 0 66 85 97 179 21 61 32 84 30 62 -4 -57 19 -46 43 21 26
74 93 204 121 233 10 11 37 40 60 65 26 28 34 34 21 15 -66 -101 -137 -282
-157 -404 -11 -66 12 -48 44 34 54 139 74 156 46 40 -8 -33 -15 -70 -15 -82 0
-41 16 -24 29 29 23 100 113 290 178 376 31 41 43 35 14 -7 -30 -42 -76 -145
-106 -237 -48 -147 -29 -152 49 -11 44 79 56 94 51 67 -9 -59 -33 -266 -54
-460 -84 -774 -80 -1191 20 -2210 111 -1139 139 -1341 224 -1668 19 -72 35
-134 35 -137 0 -3 -11 -5 -24 -5 -40 0 -311 -49 -451 -81 -331 -76 -539 -150
-819 -292 -205 -104 -653 -369 -836 -495 -228 -157 -335 -227 -408 -265 -79
-42 -98 -68 -28 -37 81 34 210 112 466 280 339 222 770 455 995 538 215 79
556 166 802 207 153 25 154 14 3 -23 -74 -18 -148 -39 -165 -47 -16 -7 -115
-41 -218 -74 -272 -88 -488 -177 -812 -331 -172 -83 -297 -154 -475 -270 -91
-59 -223 -141 -295 -183 -118 -67 -237 -142 -290 -180 -11 -8 -17 -18 -14 -21
3 -3 64 27 135 67 196 111 403 219 414 215 5 -2 -144 -99 -333 -216 -459 -285
-541 -338 -530 -345 4 -3 42 15 83 40 231 142 973 554 1206 671 67 33 168 77
225 97 116 40 395 125 412 125 6 0 -25 -22 -68 -50 -108 -67 -230 -162 -230
-180 0 -25 29 -23 146 10 61 17 113 29 115 27 4 -4 -101 -50 -351 -154 -229
-96 -348 -172 -306 -197 12 -8 238 63 505 158 132 47 244 86 250 86 5 0 -13
-16 -42 -36 -29 -20 -52 -43 -52 -51 0 -29 33 -24 117 20 175 90 664 228 1063
301 574 105 952 143 1615 166 299 10 450 23 493 40 14 6 22 18 22 32 -1 53 5
53 -297 35 -347 -21 -630 -34 -888 -42 -831 -25 -1513 -118 -2110 -290 -49
-14 -99 -28 -110 -31 -36 -9 78 58 170 101 192 90 490 183 700 220 186 32 441
67 463 63 9 -2 -45 -21 -120 -43 -76 -22 -138 -44 -138 -49 0 -17 243 40 365
86 90 34 226 53 630 89 329 29 620 34 1155 20 518 -13 653 -23 763 -52 74 -20
102 -20 81 1 -5 5 -47 20 -94 34 l-85 25 91 0 c110 1 214 11 214 21 0 8 -30
11 -295 30 -93 6 -233 20 -310 30 l-140 19 225 -5 c302 -8 513 -5 525 7 25 25
-42 32 -408 45 -130 5 -193 11 -205 20 -15 12 -9 13 43 14 69 0 295 25 373 41
63 13 72 35 10 25 -136 -21 -356 -17 -838 13 -518 33 -636 42 -810 63 -66 7
-252 12 -496 12 l-391 1 -60 155 c-90 228 -107 291 -179 644 -36 177 -80 380
-100 451 -60 226 -138 893 -180 1543 -18 278 -16 325 31 1037 13 198 28 434
32 525 8 184 16 171 28 -42 6 -98 11 -128 21 -128 11 0 14 23 14 110 0 61 4
110 9 110 12 0 31 -104 31 -177 0 -35 4 -63 9 -63 15 0 24 103 19 204 -4 77
-10 103 -37 160 -37 77 -35 96 3 39 53 -77 94 -283 84 -424 -4 -50 -2 -69 7
-69 15 0 24 92 26 260 l1 125 18 -70 c10 -38 19 -103 19 -142 1 -40 5 -73 11
-73 29 0 24 226 -8 327 -37 117 -3 53 40 -75 l43 -127 0 -157 c0 -114 3 -158
12 -158 16 0 43 125 43 198 0 32 3 62 7 66 5 4 6 53 5 109 -3 80 -1 99 8 90
15 -14 29 -152 34 -336 6 -209 30 -181 42 51 4 67 10 122 14 122 4 0 18 -31
30 -70 22 -69 23 -124 4 -202 -8 -34 9 -37 24 -5 9 19 11 15 11 -30 1 -39 5
-53 15 -53 21 0 30 104 24 278 -6 162 -2 164 48 16 17 -51 28 -110 31 -171 3
-51 9 -93 13 -93 12 0 20 105 15 182 -5 60 -3 69 6 48 30 -66 51 -172 56 -292
3 -71 9 -128 13 -128 34 0 36 305 4 460 l-5 25 20 -23 c11 -12 25 -48 32 -80
13 -62 15 -247 4 -379 -6 -72 -5 -83 8 -83 27 0 51 114 62 294 6 107 9 117 23
103 13 -14 14 -28 3 -112 -6 -53 -23 -155 -37 -227 -14 -72 -23 -133 -19 -136
16 -16 34 42 100 313 8 29 8 29 21 -20 20 -73 18 -87 -26 -196 -39 -96 -51
-159 -30 -159 5 0 12 12 16 28 7 31 70 148 84 157 22 14 -42 -160 -106 -287
-35 -70 -40 -88 -25 -88 8 0 95 145 160 265 l22 40 -6 -50 c-8 -75 -41 -166
-85 -234 -22 -33 -36 -63 -31 -65 8 -5 76 61 105 104 l18 25 -7 -25 c-4 -14
-18 -49 -31 -79 -27 -61 -29 -71 -11 -71 20 0 64 89 106 215 22 64 41 119 44
121 8 9 -4 -130 -15 -166 -6 -19 -28 -64 -48 -100 -40 -68 -82 -179 -74 -192
10 -16 21 -7 39 31 9 22 39 72 66 113 43 64 49 70 49 45 0 -38 -45 -170 -76
-223 -35 -60 -13 -66 31 -7 64 87 90 151 90 223 0 36 -4 74 -8 85 -8 19 -8 19
4 1 18 -29 39 -119 33 -140 -3 -10 -23 -46 -44 -80 -44 -70 -86 -173 -76 -184
9 -8 18 4 65 88 19 33 35 59 37 57 1 -1 -11 -40 -27 -87 -28 -84 -37 -140 -21
-140 5 0 16 25 26 55 9 30 19 55 21 55 2 0 1 -17 -2 -39 -8 -56 13 -62 38 -9
l20 43 -5 -140 c-3 -77 -9 -150 -12 -162 -5 -17 -2 -23 9 -23 15 0 18 17 43
210 l7 55 9 -35 c12 -43 54 -100 74 -100 18 0 18 5 -6 69 -18 46 -19 55 -6 65
12 9 8 23 -26 96 -42 89 -62 150 -48 150 5 0 11 -8 15 -17 9 -27 63 -89 70
-81 4 4 -20 62 -54 129 -34 67 -61 129 -61 138 1 20 51 -36 87 -96 14 -24 29
-43 34 -43 21 0 6 42 -35 104 -27 41 -42 73 -39 85 3 10 -12 56 -32 102 -32
72 -34 84 -20 91 13 8 11 16 -17 55 -18 25 -49 64 -69 87 -37 43 -63 85 -57
92 2 2 21 -19 41 -47 45 -60 65 -57 31 5 -13 24 -22 50 -19 58 8 19 -29 111
-65 165 l-29 43 26 -6 c42 -11 24 16 -35 52 -28 16 -61 43 -73 58 l-22 27 37
-6 c72 -14 34 13 -76 55 -103 38 -158 70 -158 92 0 12 48 0 102 -27 26 -13 50
-20 53 -15 13 21 -148 100 -203 100 -17 0 -85 40 -79 46 2 2 45 -10 95 -28 87
-31 123 -33 91 -5 -34 30 -217 108 -269 114 -30 3 -75 17 -100 30 l-45 23 44
-6 c25 -3 84 -19 133 -34 65 -20 88 -24 88 -15 0 8 -16 19 -34 25 -22 7 -33
16 -30 24 4 9 -13 19 -50 31 -31 10 -64 24 -73 31 -16 12 -13 12 15 3 48 -16
52 -2 11 34 -20 18 -69 75 -108 127 l-72 95 145 -147 c79 -82 147 -148 150
-148 10 0 -23 60 -71 129 -24 35 -42 65 -40 68 3 2 41 -31 86 -73 45 -42 81
-69 81 -61 0 27 -87 131 -170 202 -72 62 -117 112 -108 119 2 2 15 6 30 10 30
7 46 -10 88 -93 12 -25 54 -79 94 -120 39 -42 79 -87 88 -101 8 -14 19 -22 22
-19 12 11 -14 62 -68 134 -53 70 -81 115 -72 115 3 0 53 -41 112 -91 58 -50
108 -88 112 -85 3 4 -30 42 -73 86 -43 44 -77 81 -74 84 10 10 171 -99 212
-144 24 -27 47 -47 50 -43 11 10 -23 77 -56 112 l-32 33 93 -46 c101 -51 148
-57 69 -10 -113 67 -199 127 -251 175 -54 49 -67 69 -46 69 6 0 10 -6 10 -14
0 -15 73 -74 164 -131 33 -21 119 -59 190 -85 72 -26 139 -51 149 -55 9 -4 17
-3 17 2 0 10 -89 65 -230 142 -52 29 -113 68 -135 88 -35 31 -19 25 128 -50
93 -48 207 -112 254 -142 145 -95 114 -44 -57 94 -52 42 -126 96 -164 121 -51
34 -63 46 -48 48 51 8 203 -84 333 -203 52 -46 100 -84 106 -85 17 0 -179 233
-218 261 -56 40 -20 32 44 -10 80 -52 120 -90 232 -218 48 -57 95 -103 102
-103 8 0 13 3 11 8 -10 24 -174 256 -208 295 l-42 47 35 0 c29 0 37 -5 46 -28
7 -16 42 -56 79 -89 66 -60 83 -84 121 -175 28 -66 46 -63 37 5 -10 76 -50
155 -108 214 -29 29 -50 54 -47 56 2 2 23 2 47 -1 35 -3 45 -10 58 -33 8 -16
39 -67 69 -113 66 -103 85 -147 85 -197 0 -44 11 -50 28 -16 10 21 11 20 11
-10 1 -35 18 -53 27 -28 8 19 -21 225 -40 288 -8 26 -12 47 -10 47 18 0 94
-181 94 -227 0 -12 5 -23 10 -23 12 0 13 82 0 135 l-9 40 20 -25 c39 -50 81
-149 91 -216 15 -96 17 -102 29 -84 12 18 3 116 -17 189 -8 29 -13 55 -11 57
7 7 55 -107 62 -147 8 -42 21 -66 31 -56 4 4 -14 72 -39 151 -26 79 -47 146
-47 150 0 3 6 6 14 6 8 0 17 -12 20 -27 4 -16 22 -51 40 -78 18 -28 41 -66 51
-85 14 -26 20 -30 23 -18 2 10 -18 56 -43 103 l-47 86 36 -18 c20 -9 36 -23
36 -30 0 -8 14 -46 31 -86 17 -40 39 -103 49 -142 9 -38 23 -71 29 -73 19 -6
13 105 -10 186 -11 40 -19 76 -16 78 13 13 66 -50 76 -90 14 -56 14 -153 1
-161 -15 -9 -2 -25 15 -19 14 6 31 53 38 104 3 21 5 19 15 -15 6 -22 14 -57
17 -78 4 -23 10 -35 17 -31 11 7 6 125 -7 158 -7 16 -5 17 12 8 34 -19 47
-188 17 -230 -21 -30 -13 -36 32 -28 42 8 81 46 93 90 l8 31 23 -47 c24 -48
40 -61 40 -33 0 45 -123 232 -174 265 -13 8 -48 33 -77 56 -302 227 -746 344
-1310 344 -190 0 -337 -12 -492 -39 l-98 -18 -107 49 c-59 27 -124 54 -144 60
-62 18 -33 28 85 28 102 0 137 -5 245 -36 12 -4 22 -2 22 4 0 19 -237 102
-293 102 -11 0 -15 4 -11 11 14 24 145 3 323 -50 157 -48 202 -56 175 -32 -5
4 -92 41 -194 82 -174 70 -190 74 -262 74 -51 0 -74 3 -67 10 17 17 158 9 259
-14 52 -12 152 -37 221 -56 134 -37 149 -40 149 -27 0 13 -348 150 -414 164
-31 7 -56 15 -56 20 0 14 74 21 169 14 106 -6 220 -30 384 -77 59 -18 111 -29
114 -25 11 11 -10 21 -156 76 -158 61 -286 96 -396 109 -76 10 -73 10 50 6
161 -4 253 -23 403 -82 69 -27 140 -47 174 -51 65 -5 82 12 21 22 -21 3 -101
37 -178 74 -77 38 -147 72 -155 75 -54 23 207 -37 343 -79 9 -3 17 -1 17 3 0
5 -54 33 -120 62 -66 29 -120 56 -120 59 0 3 42 2 94 -2 98 -7 167 -25 198
-53 10 -9 21 -13 24 -10 29 29 -91 89 -223 112 -97 17 -150 34 -109 35 78 1
415 -64 467 -90 59 -31 57 -5 -3 29 -79 45 -88 52 -58 46 67 -11 290 -16 290
-6 0 6 -3 11 -6 11 -46 0 -342 59 -413 83 -97 31 -114 50 -21 23 48 -14 90
-20 365 -46 61 -6 123 -14 139 -17 21 -4 27 -2 24 7 -5 15 -153 61 -293 91
-55 12 -104 25 -108 29 -5 4 22 6 60 4 37 -2 115 -5 173 -8 79 -3 124 -10 183
-30 42 -14 82 -26 87 -26 23 0 7 18 -37 44 -47 27 -48 27 -13 20 30 -5 80 -23
143 -49 33 -14 18 23 -19 45 -19 12 -34 24 -32 25 2 2 30 -1 62 -6 73 -12 86
-8 86 30 0 33 -1 34 -97 51 -40 7 -73 16 -73 20 0 3 39 18 86 34 98 32 101 52
4 31 -88 -19 -100 -19 -100 4 0 11 -5 23 -10 26 -18 11 -49 -5 -52 -28 -3 -18
-12 -23 -58 -29 -30 -4 -68 -10 -84 -13 -30 -5 -29 -5 12 31 41 34 52 57 33
68 -5 3 -43 -18 -85 -47 -106 -72 -116 -77 -156 -77 l-34 0 50 53 c65 67 77
84 66 91 -5 3 -51 -26 -103 -64 -108 -80 -169 -113 -201 -108 -18 3 -6 14 63
57 104 63 157 106 146 117 -4 5 -16 3 -25 -4 -24 -17 -148 -81 -180 -93 -25
-10 -24 -7 11 28 33 35 47 63 31 63 -3 0 -24 -15 -47 -34 -23 -18 -96 -64
-162 -101 -66 -38 -144 -84 -173 -103 -29 -19 -55 -33 -58 -30 -5 6 118 90
209 142 44 26 60 46 37 46 -6 0 -46 -18 -90 -40 -44 -22 -88 -40 -97 -40 -32
0 -137 -56 -223 -120 -95 -70 -121 -88 -76 -50 67 55 111 99 104 105 -4 4 -22
-4 -40 -18 -18 -14 -51 -32 -74 -39 -63 -22 -205 -119 -287 -197 -41 -39 -78
-71 -83 -71 -12 0 -118 -183 -145 -250 -12 -30 -32 -68 -44 -85 -12 -16 -30
-43 -39 -60 l-17 -30 7 35 c10 56 59 172 104 245 39 65 45 85 20 70 -22 -13
-105 -149 -145 -236 l-39 -86 -51 101 c-81 162 -183 303 -319 440 -219 224
-444 361 -756 461 -107 35 -477 145 -485 145 -3 0 -5 -6 -5 -14z m1865 -1227
c13 -5 -1 -8 -42 -8 -52 -1 -61 2 -57 14 6 16 52 13 99 -6z m235 -50 c12 -7
11 -8 -5 -8 -11 0 -31 6 -45 14 l-25 15 30 -6 c17 -4 37 -10 45 -15z m-116
-28 c15 -6 2 -13 -55 -34 -74 -27 -75 -27 -124 -10 l-50 17 33 8 c34 9 135 25
162 26 8 0 24 -3 34 -7z m412 -42 l19 -22 -35 18 c-45 23 -47 25 -23 25 11 0
28 -10 39 -21z m1066 -20 c15 -20 59 -156 57 -179 0 -6 -99 201 -99 207 0 11
26 -6 42 -28z m-2098 2 c3 -4 -21 -29 -53 -54 -32 -26 -120 -104 -194 -175
-112 -106 -145 -131 -189 -146 -29 -9 -60 -20 -68 -23 -8 -3 19 17 60 45 41
28 120 90 175 139 153 135 255 223 260 223 2 0 6 -4 9 -9z m104 -50 c18 -11
-124 -123 -235 -183 -47 -27 -88 -48 -90 -48 -12 0 294 238 307 239 3 1 11 -3
18 -8z m282 0 c0 -13 -64 -52 -68 -41 -7 19 19 50 43 50 14 0 25 -4 25 -9z
m275 -112 l80 -81 -85 52 c-144 90 -135 82 -114 97 10 7 23 13 29 13 6 0 46
-36 90 -81z m-478 17 c-4 -10 -19 -16 -41 -16 -19 0 -43 -3 -53 -6 -11 -3 -7
4 12 20 45 39 96 40 82 2z m284 -23 c12 -15 12 -16 -4 -10 -10 4 -25 7 -33 7
-9 0 -12 5 -9 10 9 15 31 12 46 -7z m-54 -89 c-17 -9 -37 -12 -50 -8 -21 7
-21 7 -2 15 11 4 34 8 50 8 l30 0 -28 -15z m-2300 -20 c-3 -3 -12 -4 -19 -1
-8 3 -5 6 6 6 11 1 17 -2 13 -5z m-127 -39 c-52 -18 -96 -32 -98 -30 -3 3 32
17 123 49 22 8 47 15 55 15 8 0 -28 -15 -80 -34z m2644 -6 c45 -12 83 -23 85
-25 1 -1 -3 -9 -10 -17 -11 -12 -27 -9 -108 20 -53 19 -98 36 -100 39 -11 11
61 2 133 -17z m2233 -81 c-3 -7 -5 -2 -5 12 0 14 2 19 5 13 2 -7 2 -19 0 -25z
m-4924 -84 c-11 -17 -19 -22 -21 -14 -3 7 3 19 14 27 26 19 27 17 7 -13z
m2694 -16 c-3 -8 -6 -5 -6 6 -1 11 2 17 5 13 3 -3 4 -12 1 -19z m-1349 -260
c-9 -13 -37 -38 -64 -56 l-49 -34 60 56 c33 31 62 56 64 56 2 0 -3 -10 -11
-22z m2164 -246 c22 -29 39 -55 36 -57 -2 -3 -19 15 -38 40 -18 24 -39 46 -46
49 -13 5 -74 90 -74 103 1 10 65 -62 122 -135z m-2443 -338 c-48 -49 -56 -42
-12 11 21 25 39 41 42 34 2 -6 -12 -26 -30 -45z m148 -24 c2 -75 -12 -103 -23
-44 -5 28 9 114 19 114 1 0 3 -31 4 -70z m-37 -300 c0 -13 -1 -13 -10 0 -5 8
-10 22 -10 30 0 13 1 13 10 0 5 -8 10 -22 10 -30z m2486 -247 c-11 -11 -17 4
-9 23 7 18 8 18 11 1 2 -10 1 -21 -2 -24z m-2581 -52 c-21 -43 -29 -39 -8 4 9
19 18 33 21 31 2 -2 -4 -18 -13 -35z m1142 -3747 c-3 -3 -12 -4 -19 -1 -8 3
-5 6 6 6 11 1 17 -2 13 -5z m-44 -11 c-7 -2 -19 -2 -25 0 -7 3 -2 5 12 5 14 0
19 -2 13 -5z m-223 -53 c-221 -59 -255 -66 -175 -39 79 27 315 88 340 88 11 0
-63 -23 -165 -49z"/>
</g>
</svg>
