<svg xmlns="http://www.w3.org/2000/svg" width="18.666" height="12.6" viewBox="0 0 18.666 12.6">
  <path id="Icon_zocial-email" data-name="Icon zocial-email" d="M.036,13.518V3.15q0-.018.054-.342l6.1,5.22L.108,13.878a1.525,1.525,0,0,1-.072-.36Zm.81-11.43a.776.776,0,0,1,.306-.054H17.586a1.019,1.019,0,0,1,.324.054L11.79,7.326l-.81.648-1.6,1.314-1.6-1.314-.81-.648ZM.864,14.58,7,8.694,9.378,10.62l2.376-1.926,6.138,5.886a.864.864,0,0,1-.306.054H1.152a.815.815,0,0,1-.288-.054Zm11.7-6.552,6.084-5.22a1.074,1.074,0,0,1,.054.342V13.518a1.38,1.38,0,0,1-.054.36Z" transform="translate(-0.036 -2.034)" fill="#727272"/>
</svg>
