<?xml version="1.0" encoding="UTF-8"?>
<!DOCTYPE svg PUBLIC "-//W3C//DTD SVG 1.1//EN" "http://www.w3.org/Graphics/SVG/1.1/DTD/svg11.dtd">
<svg xmlns="http://www.w3.org/2000/svg" version="1.1" width="325px" height="369px" style="shape-rendering:geometricPrecision; text-rendering:geometricPrecision; image-rendering:optimizeQuality; fill-rule:evenodd; clip-rule:evenodd" xmlns:xlink="http://www.w3.org/1999/xlink">
<g><path style="opacity:1" fill="#fdc452" d="M 51.5,47.5 C 53.3885,48.322 55.3885,49.1553 57.5,50C 57.2059,55.6244 56.8726,62.1244 56.5,69.5C 56.3385,74.1698 57.0052,78.6698 58.5,83C 57.3468,85.6157 56.3468,88.2824 55.5,91C 55.2292,98.1516 55.5625,105.152 56.5,112C 55.8333,114.667 55.1667,117.333 54.5,120C 54.5743,149.296 54.5743,182.463 54.5,219.5C 52.0576,219.646 51.3909,218.813 52.5,217C 51.8333,216.333 51.1667,215.667 50.5,215C 51.8333,214 51.8333,213 50.5,212C 51.3081,211.692 51.9747,211.192 52.5,210.5C 52.1543,209.304 51.6543,209.304 51,210.5C 49.0785,156.881 47.9118,102.881 47.5,48.5C 48.7079,47.7659 50.0413,47.4326 51.5,47.5 Z"/></g>
<g><path style="opacity:1" fill="#fbbc44" d="M 51.5,47.5 C 54.1667,47.5 56.8333,47.5 59.5,47.5C 66.9704,48.4369 73.8037,48.4369 80,47.5C 81.1192,48.5521 81.6192,49.7188 81.5,51C 80.1667,51.3333 78.8333,51.6667 77.5,52C 80.1667,52.6667 80.1667,53.3333 77.5,54C 78.1169,57.4143 76.7836,60.081 73.5,62C 76.022,63.6859 75.6887,65.0192 72.5,66C 73.1667,66.3333 73.8333,66.6667 74.5,67C 73.572,67.3879 72.9054,68.0546 72.5,69C 72.5246,70.9877 72.5246,72.9877 72.5,75C 71.5,76.6667 70.5,78.3333 69.5,80C 70.1667,80.6667 70.8333,81.3333 71.5,82C 69.8316,84.2482 68.1649,85.7482 66.5,86.5C 67.6682,87.9056 67.3348,89.0723 65.5,90C 66.7825,92.7947 66.7825,95.6281 65.5,98.5C 64.3247,97.1451 63.3247,97.3117 62.5,99C 63.938,99.2189 65.2713,99.7189 66.5,100.5C 62.8,108.059 61.1333,116.059 61.5,124.5C 59.0087,125.541 59.0087,126.374 61.5,127C 58.8333,127.667 58.8333,128.333 61.5,129C 59.8258,131.508 58.8258,134.342 58.5,137.5C 58.6079,151.494 58.6079,165.66 58.5,180C 60.8907,182.733 60.8907,185.4 58.5,188C 59.1922,192.434 59.5255,196.767 59.5,201C 59,201.5 58.5,202 58,202.5C 57.3696,224.915 55.8696,247.248 53.5,269.5C 52.5,269.5 51.5,269.5 50.5,269.5C 49.3903,262.726 48.3903,256.06 47.5,249.5C 47.1667,249.5 46.8333,249.5 46.5,249.5C 46.5,244.167 46.5,238.833 46.5,233.5C 46.8311,171.929 46.4978,110.429 45.5,49C 46.0944,48.5357 46.7611,48.369 47.5,48.5C 47.9118,102.881 49.0785,156.881 51,210.5C 51.6543,209.304 52.1543,209.304 52.5,210.5C 51.9747,211.192 51.3081,211.692 50.5,212C 51.8333,213 51.8333,214 50.5,215C 51.1667,215.667 51.8333,216.333 52.5,217C 51.3909,218.813 52.0576,219.646 54.5,219.5C 54.5743,182.463 54.5743,149.296 54.5,120C 55.1667,117.333 55.8333,114.667 56.5,112C 55.5625,105.152 55.2292,98.1516 55.5,91C 56.3468,88.2824 57.3468,85.6157 58.5,83C 57.0052,78.6698 56.3385,74.1698 56.5,69.5C 56.8726,62.1244 57.2059,55.6244 57.5,50C 55.3885,49.1553 53.3885,48.322 51.5,47.5 Z"/></g>
<g><path style="opacity:1" fill="#f3ab2c" d="M 244.5,68.5 C 242.235,69.2291 240.235,68.3958 238.5,66C 235.798,64.6601 233.131,63.3267 230.5,62C 226.509,61.4789 222.843,61.6456 219.5,62.5C 217.169,61.4737 215.169,60.1403 213.5,58.5C 213.167,57.1667 212.833,57.1667 212.5,58.5C 209.979,56.299 207.479,53.9657 205,51.5C 204.667,51.8333 204.333,52.1667 204,52.5C 200.429,51.2084 196.595,50.5417 192.5,50.5C 185.968,51.0958 180.134,51.0958 175,50.5C 174.147,52.1247 173.147,52.4581 172,51.5C 171.365,52.9663 170.531,54.2997 169.5,55.5C 170.313,56.8139 171.313,57.9805 172.5,59C 168.158,64.5972 162.825,68.0972 156.5,69.5C 157.711,67.5781 159.044,65.7448 160.5,64C 158.695,63.028 157.028,61.8613 155.5,60.5C 154.522,60.9767 153.689,61.6433 153,62.5C 152.667,61.8333 152.333,61.1667 152,60.5C 151.581,61.6721 150.915,62.6721 150,63.5C 148.34,63.6759 146.674,63.0093 145,61.5C 144.581,62.6721 143.915,63.6721 143,64.5C 141.284,64.5894 139.451,64.2561 137.5,63.5C 136.117,66.0756 135.283,65.7423 135,62.5C 134,64.151 132.833,65.8176 131.5,67.5C 129.326,69.7808 127.326,69.7808 125.5,67.5C 124.459,69.9913 123.626,69.9913 123,67.5C 120.378,68.8395 118.711,70.5062 118,72.5C 116.951,71.4829 115.784,71.3162 114.5,72C 115.654,72.9138 115.487,73.7471 114,74.5C 112.692,73.8487 111.859,74.5154 111.5,76.5C 104.622,78.6043 97.9557,81.271 91.5,84.5C 91.0472,83.5416 90.3805,82.7083 89.5,82C 90.1258,81.2496 90.6258,80.4162 91,79.5C 91.9138,80.6537 92.7471,80.487 93.5,79C 92.3659,77.984 92.6992,77.3173 94.5,77C 93.8333,76.6667 93.1667,76.3333 92.5,76C 93.9308,75.5348 95.0975,74.7014 96,73.5C 96.1932,70.819 97.1932,68.1523 99,65.5C 99.9138,66.6537 100.747,66.487 101.5,65C 101.167,64.6667 100.833,64.3333 100.5,64C 104.5,63.3333 104.5,62.6667 100.5,62C 102.112,61.2797 103.612,61.4464 105,62.5C 106.167,61.3333 107.333,60.1667 108.5,59C 107.465,57.4931 107.632,55.9931 109,54.5C 109.333,55.1667 109.667,55.8333 110,56.5C 110.371,52.1288 112.704,49.7954 117,49.5C 123.816,50.3942 131.483,50.0608 140,48.5C 153.408,49.6821 168.575,49.6821 185.5,48.5C 193.011,48.4068 200.344,48.9068 207.5,50C 205.833,48.6667 204.167,47.3333 202.5,46C 158.167,45.3333 113.833,45.3333 69.5,46C 65.9748,46.1787 62.6414,46.6787 59.5,47.5C 56.8333,47.5 54.1667,47.5 51.5,47.5C 50.0413,47.4326 48.7079,47.7659 47.5,48.5C 46.7611,48.369 46.0944,48.5357 45.5,49C 46.4978,110.429 46.8311,171.929 46.5,233.5C 45.596,232.791 45.2627,231.791 45.5,230.5C 45.5,170.498 45.1666,110.498 44.5,50.5C 43.1667,50.5 41.8333,50.5 40.5,50.5C 42.6489,48.2542 45.3156,46.7542 48.5,46C 51.8333,45.6667 55.1667,45.3333 58.5,45C 106.833,44.3333 155.167,44.3333 203.5,45C 209.44,47.2734 213.773,51.2734 216.5,57C 222.167,57.3333 227.833,57.6667 233.5,58C 238.987,59.6552 242.654,63.1552 244.5,68.5 Z"/></g>
<g><path style="opacity:1" fill="#f1a623" d="M 212.5,58.5 C 212.223,64.5513 211.723,70.8846 211,77.5C 209.156,78.7107 208.322,80.044 208.5,81.5C 207.169,80.4078 206.336,79.0745 206,77.5C 204.43,78.614 203.097,79.9474 202,81.5C 201.25,80.8742 200.416,80.3742 199.5,80C 192.783,79.7962 186.117,79.2962 179.5,78.5C 177.412,79.179 175.412,79.5123 173.5,79.5C 172.402,75.6395 171.569,75.6395 171,79.5C 170.389,75.7279 169.389,75.7279 168,79.5C 165.436,77.9231 162.603,76.9231 159.5,76.5C 158.893,76.6236 158.56,76.9569 158.5,77.5C 154.311,77.5642 149.978,77.0642 145.5,76C 144.809,74.9326 144.309,73.7659 144,72.5C 143.374,74.9913 142.541,74.9913 141.5,72.5C 139.902,74.9734 138.402,74.9734 137,72.5C 136.333,75.1667 135.667,75.1667 135,72.5C 134.626,73.4162 134.126,74.2496 133.5,75C 129.303,75.1096 125.303,75.2762 121.5,75.5C 118.14,75.6159 114.807,75.9492 111.5,76.5C 111.859,74.5154 112.692,73.8487 114,74.5C 115.487,73.7471 115.654,72.9138 114.5,72C 115.784,71.3162 116.951,71.4829 118,72.5C 118.711,70.5062 120.378,68.8395 123,67.5C 123.626,69.9913 124.459,69.9913 125.5,67.5C 127.326,69.7808 129.326,69.7808 131.5,67.5C 132.833,65.8176 134,64.151 135,62.5C 135.283,65.7423 136.117,66.0756 137.5,63.5C 139.451,64.2561 141.284,64.5894 143,64.5C 143.915,63.6721 144.581,62.6721 145,61.5C 146.674,63.0093 148.34,63.6759 150,63.5C 150.915,62.6721 151.581,61.6721 152,60.5C 152.333,61.1667 152.667,61.8333 153,62.5C 153.689,61.6433 154.522,60.9767 155.5,60.5C 157.028,61.8613 158.695,63.028 160.5,64C 159.044,65.7448 157.711,67.5781 156.5,69.5C 162.825,68.0972 168.158,64.5972 172.5,59C 171.313,57.9805 170.313,56.8139 169.5,55.5C 170.531,54.2997 171.365,52.9663 172,51.5C 173.147,52.4581 174.147,52.1247 175,50.5C 180.134,51.0958 185.968,51.0958 192.5,50.5C 196.595,50.5417 200.429,51.2084 204,52.5C 204.333,52.1667 204.667,51.8333 205,51.5C 207.479,53.9657 209.979,56.299 212.5,58.5 Z"/></g>
<g><path style="opacity:0.302" fill="#e68a08" d="M 40.5,51.5 C 42.1696,93.3924 43.1696,135.559 43.5,178C 42.6509,186.494 42.3176,194.994 42.5,203.5C 43.6009,237.143 44.4343,270.81 45,304.5C 45.21,306.058 45.71,307.391 46.5,308.5C 46.8333,308.5 47.1667,308.5 47.5,308.5C 51.484,309.413 55.6507,310.079 60,310.5C 95.5046,309.177 131.005,309.177 166.5,310.5C 127.534,311.17 89.7009,311.504 53,311.5C 49.3337,310.913 45.8337,309.746 42.5,308C 42.8333,307.667 43.1667,307.333 43.5,307C 42.0472,305.351 41.0472,303.518 40.5,301.5C 40.5,218.167 40.5,134.833 40.5,51.5 Z"/></g>
<g><path style="opacity:1" fill="#efa11e" d="M 213.5,58.5 C 212.678,73.1923 212.178,87.8589 212,102.5C 211.676,100.431 210.842,100.098 209.5,101.5C 208.138,103.012 207.804,104.512 208.5,106C 206.833,106.667 205.167,106.667 203.5,106C 203.833,105.667 204.167,105.333 204.5,105C 200.699,101.454 196.699,98.9538 192.5,97.5C 190.358,95.6513 189.191,93.6513 189,91.5C 188,91.8333 187,92.1667 186,92.5C 182.32,90.8812 178.987,88.2145 176,84.5C 175.667,85.1667 175.333,85.8333 175,86.5C 172.657,84.6558 170.49,82.6558 168.5,80.5C 167.707,81.3554 168.04,82.1887 169.5,83C 164.181,84.3404 160.514,82.507 158.5,77.5C 158.56,76.9569 158.893,76.6236 159.5,76.5C 162.603,76.9231 165.436,77.9231 168,79.5C 169.389,75.7279 170.389,75.7279 171,79.5C 171.569,75.6395 172.402,75.6395 173.5,79.5C 175.412,79.5123 177.412,79.179 179.5,78.5C 186.117,79.2962 192.783,79.7962 199.5,80C 200.416,80.3742 201.25,80.8742 202,81.5C 203.097,79.9474 204.43,78.614 206,77.5C 206.336,79.0745 207.169,80.4078 208.5,81.5C 208.322,80.044 209.156,78.7107 211,77.5C 211.723,70.8846 212.223,64.5513 212.5,58.5C 212.833,57.1667 213.167,57.1667 213.5,58.5 Z"/></g>
<g><path style="opacity:1" fill="#d9d8d8" d="M 216.5,73.5 C 226.5,73.5 236.5,73.5 246.5,73.5C 254.571,73.1367 262.571,73.6367 270.5,75C 274.667,77.8333 278.167,81.3333 281,85.5C 281.885,149.176 281.552,212.842 280,276.5C 277.359,281.144 273.525,284.311 268.5,286C 261.221,287.247 253.888,287.747 246.5,287.5C 245.262,287.19 245.262,286.69 246.5,286C 239.174,285.5 231.841,285.334 224.5,285.5C 217.6,284.801 210.6,284.134 203.5,283.5C 202.34,282.735 201.34,281.735 200.5,280.5C 201.981,279.52 203.315,278.353 204.5,277C 203.545,275.283 202.545,273.616 201.5,272C 202.672,271.581 203.672,270.915 204.5,270C 201.997,268.216 201.997,266.549 204.5,265C 203.549,264.282 203.383,263.449 204,262.5C 205.333,261.833 206.333,260.833 207,259.5C 207.333,260.167 207.667,260.833 208,261.5C 209,260.5 210,259.5 211,258.5C 212.268,258.616 213.602,258.949 215,259.5C 215.667,258.833 216.333,258.167 217,257.5C 218.667,257.833 220.333,258.167 222,258.5C 226.267,257.704 230.601,257.038 235,256.5C 240.951,258.622 246.785,258.789 252.5,257C 261.043,249.933 261.71,242.1 254.5,233.5C 250.879,230.856 246.879,229.023 242.5,228C 243.362,225.266 244.195,225.099 245,227.5C 245.667,226.167 246.333,224.833 247,223.5C 248,223.833 249,224.167 250,224.5C 251.044,223.377 251.71,222.044 252,220.5C 257.16,219.655 260.16,216.322 261,210.5C 262.319,204.457 260.486,199.624 255.5,196C 255.833,195.667 256.167,195.333 256.5,195C 253.275,193.852 251.942,191.852 252.5,189C 255.046,184.079 258.213,179.579 262,175.5C 262.099,172.852 262.265,170.352 262.5,168C 261.183,163.684 259.016,159.851 256,156.5C 255.333,155.167 254.667,155.167 254,156.5C 252.702,155.44 251.535,154.274 250.5,153C 251.504,150.65 252.504,148.316 253.5,146C 256.767,146.063 258.934,144.563 260,141.5C 260.333,142.167 260.667,142.833 261,143.5C 262.269,138.578 262.269,133.578 261,128.5C 258.391,125.463 255.891,122.297 253.5,119C 251.152,118.89 249.652,117.723 249,115.5C 248.667,116.167 248.333,116.833 248,117.5C 246.249,115.51 245.249,113.177 245,110.5C 244.667,111.167 244.333,111.833 244,112.5C 243.55,110.481 242.717,108.648 241.5,107C 242.458,105.853 242.125,104.853 240.5,104C 241.108,101.816 240.441,99.8159 238.5,98C 239.214,96.6569 238.88,95.3236 237.5,94C 238.239,91.7646 238.239,89.7646 237.5,88C 236.672,87.0853 235.672,86.4186 234.5,86C 237.288,83.6262 236.954,82.2929 233.5,82C 236.167,81.3333 236.167,80.6667 233.5,80C 234.833,79.3333 234.833,78.6667 233.5,78C 231.527,77.5045 229.527,77.3379 227.5,77.5C 224.038,76.5184 220.371,76.185 216.5,76.5C 216.5,75.5 216.5,74.5 216.5,73.5 Z"/></g>
<g><path style="opacity:1" fill="#cac8c8" d="M 216.5,76.5 C 220.371,76.185 224.038,76.5184 227.5,77.5C 227.736,79.0491 227.736,80.5491 227.5,82C 229.301,82.3173 229.634,82.984 228.5,84C 229.009,86.5697 230.009,88.9031 231.5,91C 230.623,94.5076 230.29,98.1742 230.5,102C 232.398,102.64 232.732,103.973 231.5,106C 231.625,107.627 232.125,109.127 233,110.5C 233.805,108.099 234.638,108.266 235.5,111C 234.978,111.561 234.645,112.228 234.5,113C 235.535,114.274 236.702,115.44 238,116.5C 239.016,115.366 239.683,115.699 240,117.5C 241.016,116.366 241.683,116.699 242,118.5C 242.333,118.167 242.667,117.833 243,117.5C 245.739,118.616 248.239,119.949 250.5,121.5C 239.167,121.5 227.833,121.5 216.5,121.5C 216.5,106.5 216.5,91.5 216.5,76.5 Z"/></g>
<g><path style="opacity:1" fill="#e6594a" d="M 123.5,77.5 C 123.217,96.6897 123.217,116.023 123.5,135.5C 113.167,135.5 102.833,135.5 92.5,135.5C 94.2143,134.262 96.2143,133.595 98.5,133.5C 98.5,132.5 98.5,131.5 98.5,130.5C 100.484,130.617 102.15,129.95 103.5,128.5C 104.573,125.26 106.573,122.76 109.5,121C 108.299,120.097 107.465,118.931 107,117.5C 106.667,118.167 106.333,118.833 106,119.5C 105.282,118.549 104.449,118.383 103.5,119C 102.167,119.667 102.167,120.333 103.5,121C 100.781,122.597 98.6141,124.763 97,127.5C 95.9783,126.646 95.1449,125.646 94.5,124.5C 95.7468,122.958 95.7468,121.458 94.5,120C 97.1667,119.333 97.1667,118.667 94.5,118C 96.9042,117.492 97.5709,116.325 96.5,114.5C 98.9913,113.459 98.9913,112.626 96.5,112C 100.305,110.392 101.638,107.725 100.5,104C 101.717,102.352 102.55,100.519 103,98.5C 103.333,98.8333 103.667,99.1667 104,99.5C 104.903,98.2986 106.069,97.4652 107.5,97C 107.043,96.586 106.709,96.086 106.5,95.5C 107.364,93.0381 108.697,90.8714 110.5,89C 110.167,88.6667 109.833,88.3333 109.5,88C 110.784,87.3162 111.951,87.4829 113,88.5C 113.5,88 114,87.5 114.5,87C 112.521,82.8865 113.521,80.0531 117.5,78.5C 119.379,77.6586 121.379,77.3253 123.5,77.5 Z"/></g>
<g><path style="opacity:1" fill="#eb6758" d="M 117.5,78.5 C 113.521,80.0531 112.521,82.8865 114.5,87C 114,87.5 113.5,88 113,88.5C 111.951,87.4829 110.784,87.3162 109.5,88C 109.833,88.3333 110.167,88.6667 110.5,89C 108.697,90.8714 107.364,93.0381 106.5,95.5C 106.709,96.086 107.043,96.586 107.5,97C 106.069,97.4652 104.903,98.2986 104,99.5C 103.667,99.1667 103.333,98.8333 103,98.5C 102.55,100.519 101.717,102.352 100.5,104C 101.638,107.725 100.305,110.392 96.5,112C 98.9913,112.626 98.9913,113.459 96.5,114.5C 97.5709,116.325 96.9042,117.492 94.5,118C 97.1667,118.667 97.1667,119.333 94.5,120C 95.7468,121.458 95.7468,122.958 94.5,124.5C 95.1449,125.646 95.9783,126.646 97,127.5C 98.6141,124.763 100.781,122.597 103.5,121C 102.167,120.333 102.167,119.667 103.5,119C 104.449,118.383 105.282,118.549 106,119.5C 106.333,118.833 106.667,118.167 107,117.5C 107.465,118.931 108.299,120.097 109.5,121C 106.573,122.76 104.573,125.26 103.5,128.5C 102.15,129.95 100.484,130.617 98.5,130.5C 98.5,131.5 98.5,132.5 98.5,133.5C 96.2143,133.595 94.2143,134.262 92.5,135.5C 83.0429,135.565 73.3763,135.565 63.5,135.5C 63.5,132.5 63.5,129.5 63.5,126.5C 64.4731,128.948 64.8064,131.615 64.5,134.5C 67.8788,134.322 71.0454,134.322 74,134.5C 75.117,133.051 75.7837,131.384 76,129.5C 76.3333,130.833 76.6667,132.167 77,133.5C 77.3333,130.5 77.6667,127.5 78,124.5C 79.756,123.579 79.9227,122.412 78.5,121C 78.9054,120.055 79.572,119.388 80.5,119C 79.8333,118.667 79.1667,118.333 78.5,118C 82.0246,114.8 82.358,111.8 79.5,109C 79.9444,107.238 80.4444,107.405 81,109.5C 82.113,108.24 82.2797,107.073 81.5,106C 84.1667,104.667 84.1667,103.333 81.5,102C 82.6872,97.5504 85.6872,93.2171 90.5,89C 98.2766,82.4614 107.277,78.9614 117.5,78.5 Z"/></g>
<g><path style="opacity:1" fill="#bb5813" d="M 124.5,78.5 C 126.076,81.3522 127.576,84.3522 129,87.5C 129.759,89.0629 130.926,90.0629 132.5,90.5C 132.5,92.8333 132.5,95.1667 132.5,97.5C 131.778,97.9175 131.278,98.5842 131,99.5C 128.749,97.9705 127.249,95.9705 126.5,93.5C 126.425,88.6983 125.758,83.6983 124.5,78.5 Z"/></g>
<g><path style="opacity:1" fill="#5280dd" d="M 169.5,96.5 C 177.6,101.267 183.6,107.934 187.5,116.5C 187.5,117.167 187.5,117.833 187.5,118.5C 184.458,115.299 180.958,112.633 177,110.5C 176.853,111.603 176.02,112.77 174.5,114C 174.833,115.667 175.167,117.333 175.5,119C 174.833,119.667 174.167,119.667 173.5,119C 172.906,117.018 171.74,115.184 170,113.5C 168.318,114.865 168.151,116.365 169.5,118C 167.027,119.402 167.027,120.902 169.5,122.5C 169,123.5 168.5,124.5 168,125.5C 166.197,123.516 165.197,121.516 165,119.5C 160.825,123.277 158.991,127.443 159.5,132C 158.167,133 156.833,134 155.5,135C 155.888,137.86 155.888,140.86 155.5,144C 153.333,144.833 151.833,146.333 151,148.5C 150.333,145.833 149.667,145.833 149,148.5C 148.667,147.833 148.333,147.167 148,146.5C 147.125,147.873 146.625,149.373 146.5,151C 148.369,153.912 149.869,157.078 151,160.5C 152.075,162.83 153.575,164.163 155.5,164.5C 151.477,166.678 149.31,170.012 149,174.5C 148.282,173.549 147.449,173.383 146.5,174C 145.167,175.333 143.833,176.667 142.5,178C 143.784,179.297 143.617,180.464 142,181.5C 141.667,181.167 141.333,180.833 141,180.5C 140.641,183.544 139.974,183.878 139,181.5C 138.342,183.108 138.842,184.275 140.5,185C 137.439,189.251 134.605,194.751 132,201.5C 129.291,203.788 125.791,204.788 121.5,204.5C 118.941,204.802 116.607,204.468 114.5,203.5C 115.5,203.5 116.5,203.5 117.5,203.5C 117.64,201.876 116.973,200.71 115.5,200C 116.747,198.542 116.747,197.042 115.5,195.5C 116.183,192.539 117.016,192.205 118,194.5C 118.317,192.699 118.984,192.366 120,193.5C 120.5,193 121,192.5 121.5,192C 121.167,190.333 120.833,188.667 120.5,187C 121.667,186.5 122.5,185.667 123,184.5C 124.907,188.01 127.74,189.176 131.5,188C 133.908,185.631 133.908,183.131 131.5,180.5C 129.563,179.842 127.73,179.509 126,179.5C 126.51,177.62 126.343,175.787 125.5,174C 126.364,171.929 127.697,170.262 129.5,169C 126.833,168.333 126.833,167.667 129.5,167C 128.833,166.667 128.167,166.333 127.5,166C 128.376,164.414 129.376,162.914 130.5,161.5C 131.675,162.855 132.675,162.688 133.5,161C 132.643,160.311 131.977,159.478 131.5,158.5C 133.68,156.739 135.346,154.573 136.5,152C 135.216,150.703 135.383,149.536 137,148.5C 136.882,139.473 138.049,130.64 140.5,122C 139.498,120.234 139.832,118.567 141.5,117C 141.167,116 140.833,115 140.5,114C 141.167,111.667 141.833,109.333 142.5,107C 141.146,105.043 141.479,103.043 143.5,101C 143.167,100.667 142.833,100.333 142.5,100C 145.207,97.6568 147.874,95.3235 150.5,93C 150.167,92.6667 149.833,92.3333 149.5,92C 153.361,89.797 156.695,90.4637 159.5,94C 162.768,95.1503 166.101,95.9836 169.5,96.5 Z"/></g>
<g><path style="opacity:1" fill="#bc9778" d="M 161.5,90.5 C 163.027,90.427 164.027,91.0937 164.5,92.5C 162.973,92.573 161.973,91.9063 161.5,90.5 Z"/></g>
<g><path style="opacity:1" fill="#ef7663" d="M 121.5,75.5 C 122.492,75.3284 123.158,75.6618 123.5,76.5C 123.5,76.8333 123.5,77.1667 123.5,77.5C 121.379,77.3253 119.379,77.6586 117.5,78.5C 107.277,78.9614 98.2766,82.4614 90.5,89C 85.6872,93.2171 82.6872,97.5504 81.5,102C 84.1667,103.333 84.1667,104.667 81.5,106C 82.2797,107.073 82.113,108.24 81,109.5C 80.4444,107.405 79.9444,107.238 79.5,109C 82.358,111.8 82.0246,114.8 78.5,118C 79.1667,118.333 79.8333,118.667 80.5,119C 79.572,119.388 78.9054,120.055 78.5,121C 79.9227,122.412 79.756,123.579 78,124.5C 77.6667,127.5 77.3333,130.5 77,133.5C 76.6667,132.167 76.3333,130.833 76,129.5C 75.7837,131.384 75.117,133.051 74,134.5C 71.0454,134.322 67.8788,134.322 64.5,134.5C 64.8064,131.615 64.4731,128.948 63.5,126.5C 63.5,126.167 63.5,125.833 63.5,125.5C 67.641,108.197 76.9743,94.5302 91.5,84.5C 97.9557,81.271 104.622,78.6043 111.5,76.5C 114.807,75.9492 118.14,75.6159 121.5,75.5 Z"/></g>
<g><path style="opacity:1" fill="#eb9711" d="M 40.5,51.5 C 40.5,51.1667 40.5,50.8333 40.5,50.5C 41.8333,50.5 43.1667,50.5 44.5,50.5C 45.1666,110.498 45.5,170.498 45.5,230.5C 44.8761,230.917 44.5427,231.584 44.5,232.5C 45.2384,257.821 45.9051,283.154 46.5,308.5C 45.71,307.391 45.21,306.058 45,304.5C 44.4343,270.81 43.6009,237.143 42.5,203.5C 42.3176,194.994 42.6509,186.494 43.5,178C 43.1696,135.559 42.1696,93.3924 40.5,51.5 Z"/></g>
<g><path style="opacity:1" fill="#9e3f0c" d="M 126.5,93.5 C 127.249,95.9705 128.749,97.9705 131,99.5C 131.278,98.5842 131.778,97.9175 132.5,97.5C 132.5,111.5 132.5,125.5 132.5,139.5C 130.612,138.725 128.612,138.725 126.5,139.5C 128.002,136.568 128.669,133.401 128.5,130C 127.908,121.839 127.408,113.673 127,105.5C 126.768,104.263 126.268,103.263 125.5,102.5C 125.508,99.4552 125.841,96.4552 126.5,93.5 Z"/></g>
<g><path style="opacity:1" fill="#852505" d="M 125.5,102.5 C 126.268,103.263 126.768,104.263 127,105.5C 127.408,113.673 127.908,121.839 128.5,130C 128.669,133.401 128.002,136.568 126.5,139.5C 117.538,139.855 108.205,139.855 98.5,139.5C 106.323,138.671 114.323,138.171 122.5,138C 123.416,137.626 124.25,137.126 125,136.5C 125.5,125.172 125.667,113.838 125.5,102.5 Z"/></g>
<g><path style="opacity:1" fill="#e08a1c" d="M 168.5,94.5 C 170.527,94.3379 172.527,94.5045 174.5,95C 178.52,99.0099 183.187,102.01 188.5,104C 190.004,105.491 190.837,107.324 191,109.5C 191.333,108.833 191.667,108.167 192,107.5C 192.333,108.833 192.667,110.167 193,111.5C 193.333,110.833 193.667,110.167 194,109.5C 194.273,111.329 195.107,112.829 196.5,114C 196.167,114.333 195.833,114.667 195.5,115C 197.262,116.762 197.928,118.595 197.5,120.5C 198.799,121.245 200.132,122.745 201.5,125C 200.911,126.873 201.578,128.54 203.5,130C 202.542,131.147 202.875,132.147 204.5,133C 204.5,134.667 204.5,136.333 204.5,138C 206.301,138.317 206.634,138.984 205.5,140C 206.167,141.667 206.833,143.333 207.5,145C 206.163,152.34 206.163,159.007 207.5,165C 206.833,165.333 206.167,165.667 205.5,166C 206.447,168.188 206.447,170.522 205.5,173C 203.606,174.101 202.939,175.434 203.5,177C 201.368,177.918 200.701,179.251 201.5,181C 200.299,181.903 199.465,183.069 199,184.5C 198.667,183.833 198.333,183.167 198,182.5C 197.691,183.766 197.191,184.933 196.5,186C 196.833,186.333 197.167,186.667 197.5,187C 191.412,193.088 184.912,199.588 178,206.5C 177.667,205.833 177.333,205.167 177,204.5C 174.667,206.5 172.333,208.5 170,210.5C 166.644,210.418 163.644,211.751 161,214.5C 159.221,213.521 157.555,213.854 156,215.5C 148.813,216.538 141.813,216.538 135,215.5C 133.399,213.028 131.399,212.028 129,212.5C 124.791,210.386 120.624,208.386 116.5,206.5C 118.5,206.833 120.5,207.167 122.5,207.5C 124.265,208.461 126.265,208.795 128.5,208.5C 131.645,209.233 134.812,210.233 138,211.5C 139.147,210.542 140.147,210.875 141,212.5C 142.333,211.167 143.667,211.167 145,212.5C 146.333,209.833 147.667,209.833 149,212.5C 149.689,211.643 150.522,210.977 151.5,210.5C 152.967,210.723 154.467,211.056 156,211.5C 156.915,210.672 157.581,209.672 158,208.5C 158.667,211.167 159.333,211.167 160,208.5C 162.136,209.03 163.97,208.197 165.5,206C 166.784,205.316 167.951,205.483 169,206.5C 171.708,202.561 174.708,200.561 178,200.5C 179.135,197.293 181.135,195.959 184,196.5C 185.487,195.747 185.654,194.914 184.5,194C 185.701,193.097 186.535,191.931 187,190.5C 188.982,189.906 190.816,188.74 192.5,187C 191.209,184.91 191.876,183.576 194.5,183C 193.549,182.282 193.383,181.449 194,180.5C 195.771,179.696 197.271,178.529 198.5,177C 198.043,176.586 197.709,176.086 197.5,175.5C 200.106,173.167 201.772,170.667 202.5,168C 201.643,165.868 201.31,163.535 201.5,161C 201.905,160.055 202.572,159.388 203.5,159C 200.833,158.333 200.833,157.667 203.5,157C 203.5,153.333 203.5,149.667 203.5,146C 202.833,145.333 202.167,144.667 201.5,144C 201.616,142.732 201.949,141.398 202.5,140C 200.393,138.736 199.393,136.903 199.5,134.5C 198.5,134.5 197.5,134.5 196.5,134.5C 196.146,132.459 196.146,130.626 196.5,129C 195.627,127.955 194.627,127.122 193.5,126.5C 193.167,125.5 192.5,124.833 191.5,124.5C 191.206,121.246 189.873,118.579 187.5,116.5C 183.6,107.934 177.6,101.267 169.5,96.5C 169.167,95.8333 168.833,95.1667 168.5,94.5 Z"/></g>
<g><path style="opacity:1" fill="#4e7bda" d="M 187.5,118.5 C 188.34,120.853 189.674,122.853 191.5,124.5C 191.733,127.542 192.733,130.208 194.5,132.5C 195.054,139.153 195.388,145.82 195.5,152.5C 192.82,167.028 186.487,179.861 176.5,191C 170.608,195.436 164.608,199.602 158.5,203.5C 153.493,204.556 148.493,205.723 143.5,207C 139.179,207.499 134.846,207.666 130.5,207.5C 127.203,207.11 124.203,206.11 121.5,204.5C 125.791,204.788 129.291,203.788 132,201.5C 134.605,194.751 137.439,189.251 140.5,185C 138.842,184.275 138.342,183.108 139,181.5C 139.974,183.878 140.641,183.544 141,180.5C 141.333,180.833 141.667,181.167 142,181.5C 143.617,180.464 143.784,179.297 142.5,178C 143.833,176.667 145.167,175.333 146.5,174C 147.449,173.383 148.282,173.549 149,174.5C 149.31,170.012 151.477,166.678 155.5,164.5C 153.575,164.163 152.075,162.83 151,160.5C 149.869,157.078 148.369,153.912 146.5,151C 146.625,149.373 147.125,147.873 148,146.5C 148.333,147.167 148.667,147.833 149,148.5C 149.667,145.833 150.333,145.833 151,148.5C 151.833,146.333 153.333,144.833 155.5,144C 155.888,140.86 155.888,137.86 155.5,135C 156.833,134 158.167,133 159.5,132C 158.991,127.443 160.825,123.277 165,119.5C 165.197,121.516 166.197,123.516 168,125.5C 168.5,124.5 169,123.5 169.5,122.5C 167.027,120.902 167.027,119.402 169.5,118C 168.151,116.365 168.318,114.865 170,113.5C 171.74,115.184 172.906,117.018 173.5,119C 174.167,119.667 174.833,119.667 175.5,119C 175.167,117.333 174.833,115.667 174.5,114C 176.02,112.77 176.853,111.603 177,110.5C 180.958,112.633 184.458,115.299 187.5,118.5 Z"/></g>
<g><path style="opacity:1" fill="#eb9b20" d="M 213.5,58.5 C 215.169,60.1403 217.169,61.4737 219.5,62.5C 222.843,61.6456 226.509,61.4789 230.5,62C 233.131,63.3267 235.798,64.6601 238.5,66C 240.235,68.3958 242.235,69.2291 244.5,68.5C 245.441,70.0495 246.107,71.7162 246.5,73.5C 236.5,73.5 226.5,73.5 216.5,73.5C 215.186,118.328 214.352,163.328 214,208.5C 212.337,212.496 210.171,216.163 207.5,219.5C 202.015,221.743 196.682,224.243 191.5,227C 189.561,227.908 188.561,229.408 188.5,231.5C 185.933,231.721 183.599,232.388 181.5,233.5C 178.404,234.76 176.071,236.926 174.5,240C 172.687,239.954 171.021,240.12 169.5,240.5C 168.5,239.833 167.5,239.167 166.5,238.5C 165.808,239.025 165.308,239.692 165,240.5C 162.907,239.754 160.907,239.421 159,239.5C 158.224,242.649 156.724,243.149 154.5,241C 154.665,239.883 154.998,238.716 155.5,237.5C 154.965,235.729 154.131,235.396 153,236.5C 152.147,234.875 151.147,234.542 150,235.5C 146.278,235.105 142.944,233.771 140,231.5C 139.692,232.308 139.192,232.975 138.5,233.5C 137.194,230.934 135.361,229.934 133,230.5C 131.748,228.999 130.748,227.332 130,225.5C 129.667,226.167 129.333,226.833 129,227.5C 126.667,227.167 124.333,226.833 122,226.5C 121.333,229.167 120.667,229.167 120,226.5C 118.097,228.441 117.264,230.774 117.5,233.5C 115.827,233.764 114.16,233.264 112.5,232C 113.167,231.667 113.833,231.333 114.5,231C 113.333,230.5 112.5,229.667 112,228.5C 111.667,229.167 111.333,229.833 111,230.5C 110.027,228.608 109.36,226.608 109,224.5C 108.536,225.094 108.369,225.761 108.5,226.5C 106.621,226.607 106.288,226.107 107.5,225C 105.719,222.763 103.719,220.763 101.5,219C 102.167,218.667 102.833,218.333 103.5,218C 102.167,216.667 100.833,215.333 99.5,214C 100.167,213.333 100.833,212.667 101.5,212C 99.1322,210.331 96.7989,208.664 94.5,207C 96.7557,204.515 96.7557,202.182 94.5,200C 96,197.833 97.1667,198 98,200.5C 98.6708,199.748 99.5041,199.414 100.5,199.5C 103.54,200.68 106.206,202.347 108.5,204.5C 109.09,205.766 109.59,207.099 110,208.5C 110.333,208.167 110.667,207.833 111,207.5C 112.724,210.73 114.724,211.064 117,208.5C 117.918,210.632 119.251,211.299 121,210.5C 124.244,213.424 127.577,215.424 131,216.5C 131.359,219.544 132.026,219.878 133,217.5C 133.29,219.044 133.956,220.377 135,221.5C 136,220.167 137,220.167 138,221.5C 139.685,219.012 141.019,219.345 142,222.5C 145.975,222.451 149.975,222.451 154,222.5C 155.333,221.833 156.333,220.833 157,219.5C 158.333,222.167 159.667,222.167 161,219.5C 161.333,219.833 161.667,220.167 162,220.5C 163.667,219.5 165.333,218.5 167,217.5C 167.333,217.833 167.667,218.167 168,218.5C 170.684,215.748 173.017,213.414 175,211.5C 175.667,212.833 176.333,212.833 177,211.5C 177.667,214.167 178.333,214.167 179,211.5C 179.333,211.833 179.667,212.167 180,212.5C 184.448,209.563 187.615,206.23 189.5,202.5C 193.885,202.017 197.218,199.517 199.5,195C 199.167,194.667 198.833,194.333 198.5,194C 200.044,193.71 201.377,193.044 202.5,192C 202.167,191.667 201.833,191.333 201.5,191C 202.833,189 204.167,187 205.5,185C 204.366,183.984 204.699,183.317 206.5,183C 206.167,182.667 205.833,182.333 205.5,182C 207.708,181.064 209.042,179.398 209.5,177C 209.673,174.74 209.673,172.407 209.5,170C 210.167,169.667 210.833,169.333 211.5,169C 211.5,159 211.5,149 211.5,139C 210.12,137.676 209.786,136.343 210.5,135C 209.167,133.333 207.833,131.667 206.5,130C 206.5,128.333 206.5,126.667 206.5,125C 205.245,122.295 203.245,120.462 200.5,119.5C 199.416,119.685 198.416,120.018 197.5,120.5C 197.928,118.595 197.262,116.762 195.5,115C 195.833,114.667 196.167,114.333 196.5,114C 195.107,112.829 194.273,111.329 194,109.5C 193.667,110.167 193.333,110.833 193,111.5C 192.667,110.167 192.333,108.833 192,107.5C 191.667,108.167 191.333,108.833 191,109.5C 190.837,107.324 190.004,105.491 188.5,104C 183.187,102.01 178.52,99.0099 174.5,95C 172.527,94.5045 170.527,94.3379 168.5,94.5C 167.395,93.3995 166.062,92.7329 164.5,92.5C 164.027,91.0937 163.027,90.427 161.5,90.5C 158.731,89.5627 156.064,88.3961 153.5,87C 151.527,86.5045 149.527,86.3379 147.5,86.5C 147.389,85.8826 147.056,85.3826 146.5,85C 142.5,84.3333 138.5,84.3333 134.5,85C 133.748,85.6708 133.414,86.5041 133.5,87.5C 132.596,88.209 132.263,89.209 132.5,90.5C 130.926,90.0629 129.759,89.0629 129,87.5C 127.576,84.3522 126.076,81.3522 124.5,78.5C 124.672,77.5084 124.338,76.8417 123.5,76.5C 123.158,75.6618 122.492,75.3284 121.5,75.5C 125.303,75.2762 129.303,75.1096 133.5,75C 134.126,74.2496 134.626,73.4162 135,72.5C 135.667,75.1667 136.333,75.1667 137,72.5C 138.402,74.9734 139.902,74.9734 141.5,72.5C 142.541,74.9913 143.374,74.9913 144,72.5C 144.309,73.7659 144.809,74.9326 145.5,76C 149.978,77.0642 154.311,77.5642 158.5,77.5C 160.514,82.507 164.181,84.3404 169.5,83C 168.04,82.1887 167.707,81.3554 168.5,80.5C 170.49,82.6558 172.657,84.6558 175,86.5C 175.333,85.8333 175.667,85.1667 176,84.5C 178.987,88.2145 182.32,90.8812 186,92.5C 187,92.1667 188,91.8333 189,91.5C 189.191,93.6513 190.358,95.6513 192.5,97.5C 196.699,98.9538 200.699,101.454 204.5,105C 204.167,105.333 203.833,105.667 203.5,106C 205.167,106.667 206.833,106.667 208.5,106C 207.804,104.512 208.138,103.012 209.5,101.5C 210.842,100.098 211.676,100.431 212,102.5C 212.178,87.8589 212.678,73.1923 213.5,58.5 Z"/></g>
<g><path style="opacity:1" fill="#e6911a" d="M 108.5,204.5 C 111.221,204.963 113.888,205.629 116.5,206.5C 120.624,208.386 124.791,210.386 129,212.5C 131.399,212.028 133.399,213.028 135,215.5C 141.813,216.538 148.813,216.538 156,215.5C 157.555,213.854 159.221,213.521 161,214.5C 163.644,211.751 166.644,210.418 170,210.5C 172.333,208.5 174.667,206.5 177,204.5C 177.333,205.167 177.667,205.833 178,206.5C 184.912,199.588 191.412,193.088 197.5,187C 197.167,186.667 196.833,186.333 196.5,186C 197.191,184.933 197.691,183.766 198,182.5C 198.333,183.167 198.667,183.833 199,184.5C 199.465,183.069 200.299,181.903 201.5,181C 200.701,179.251 201.368,177.918 203.5,177C 202.939,175.434 203.606,174.101 205.5,173C 206.447,170.522 206.447,168.188 205.5,166C 206.167,165.667 206.833,165.333 207.5,165C 206.163,159.007 206.163,152.34 207.5,145C 206.833,143.333 206.167,141.667 205.5,140C 206.634,138.984 206.301,138.317 204.5,138C 204.5,136.333 204.5,134.667 204.5,133C 202.875,132.147 202.542,131.147 203.5,130C 201.578,128.54 200.911,126.873 201.5,125C 200.132,122.745 198.799,121.245 197.5,120.5C 198.416,120.018 199.416,119.685 200.5,119.5C 203.245,120.462 205.245,122.295 206.5,125C 206.5,126.667 206.5,128.333 206.5,130C 207.833,131.667 209.167,133.333 210.5,135C 209.786,136.343 210.12,137.676 211.5,139C 211.5,149 211.5,159 211.5,169C 210.833,169.333 210.167,169.667 209.5,170C 209.673,172.407 209.673,174.74 209.5,177C 209.042,179.398 207.708,181.064 205.5,182C 205.833,182.333 206.167,182.667 206.5,183C 204.699,183.317 204.366,183.984 205.5,185C 204.167,187 202.833,189 201.5,191C 201.833,191.333 202.167,191.667 202.5,192C 201.377,193.044 200.044,193.71 198.5,194C 198.833,194.333 199.167,194.667 199.5,195C 197.218,199.517 193.885,202.017 189.5,202.5C 187.615,206.23 184.448,209.563 180,212.5C 179.667,212.167 179.333,211.833 179,211.5C 178.333,214.167 177.667,214.167 177,211.5C 176.333,212.833 175.667,212.833 175,211.5C 173.017,213.414 170.684,215.748 168,218.5C 167.667,218.167 167.333,217.833 167,217.5C 165.333,218.5 163.667,219.5 162,220.5C 161.667,220.167 161.333,219.833 161,219.5C 159.667,222.167 158.333,222.167 157,219.5C 156.333,220.833 155.333,221.833 154,222.5C 149.975,222.451 145.975,222.451 142,222.5C 141.019,219.345 139.685,219.012 138,221.5C 137,220.167 136,220.167 135,221.5C 133.956,220.377 133.29,219.044 133,217.5C 132.026,219.878 131.359,219.544 131,216.5C 127.577,215.424 124.244,213.424 121,210.5C 119.251,211.299 117.918,210.632 117,208.5C 114.724,211.064 112.724,210.73 111,207.5C 110.667,207.833 110.333,208.167 110,208.5C 109.59,207.099 109.09,205.766 108.5,204.5 Z"/></g>
<g><path style="opacity:1" fill="#8a7ea2" d="M 187.5,116.5 C 189.873,118.579 191.206,121.246 191.5,124.5C 189.674,122.853 188.34,120.853 187.5,118.5C 187.5,117.833 187.5,117.167 187.5,116.5 Z"/></g>
<g><path style="opacity:1" fill="#525268" d="M 216.5,122.5 C 216.5,122.167 216.5,121.833 216.5,121.5C 227.833,121.5 239.167,121.5 250.5,121.5C 253.72,121.78 255.72,123.447 256.5,126.5C 253.763,124.601 251.263,124.267 249,125.5C 238.067,124.957 227.233,123.957 216.5,122.5 Z"/></g>
<g><path style="opacity:1" fill="#ba8053" d="M 191.5,124.5 C 192.5,124.833 193.167,125.5 193.5,126.5C 193.833,128.5 194.167,130.5 194.5,132.5C 192.733,130.208 191.733,127.542 191.5,124.5 Z"/></g>
<g><path style="opacity:1" fill="#2a2b44" d="M 216.5,125.5 C 220.257,125.071 223.757,125.737 227,127.5C 227.333,127.167 227.667,126.833 228,126.5C 229.001,129.173 230.501,131.507 232.5,133.5C 231.05,134.85 230.383,136.516 230.5,138.5C 236.509,138.334 242.509,138.501 248.5,139C 241.654,139.172 234.987,139.672 228.5,140.5C 224.5,140.5 220.5,140.5 216.5,140.5C 216.5,135.5 216.5,130.5 216.5,125.5 Z"/></g>
<g><path style="opacity:1" fill="#353754" d="M 216.5,122.5 C 227.233,123.957 238.067,124.957 249,125.5C 251.263,124.267 253.763,124.601 256.5,126.5C 257.338,126.842 257.672,127.508 257.5,128.5C 258.785,135.204 256.119,139.204 249.5,140.5C 242.5,140.5 235.5,140.5 228.5,140.5C 234.987,139.672 241.654,139.172 248.5,139C 242.509,138.501 236.509,138.334 230.5,138.5C 230.383,136.516 231.05,134.85 232.5,133.5C 230.501,131.507 229.001,129.173 228,126.5C 227.667,126.833 227.333,127.167 227,127.5C 223.757,125.737 220.257,125.071 216.5,125.5C 216.5,124.5 216.5,123.5 216.5,122.5 Z"/></g>
<g><path style="opacity:1" fill="#db821a" d="M 193.5,126.5 C 194.627,127.122 195.627,127.955 196.5,129C 196.146,130.626 196.146,132.459 196.5,134.5C 197.5,134.5 198.5,134.5 199.5,134.5C 199.393,136.903 200.393,138.736 202.5,140C 201.949,141.398 201.616,142.732 201.5,144C 202.167,144.667 202.833,145.333 203.5,146C 203.5,149.667 203.5,153.333 203.5,157C 200.833,157.667 200.833,158.333 203.5,159C 202.572,159.388 201.905,160.055 201.5,161C 201.31,163.535 201.643,165.868 202.5,168C 201.772,170.667 200.106,173.167 197.5,175.5C 197.709,176.086 198.043,176.586 198.5,177C 197.271,178.529 195.771,179.696 194,180.5C 193.383,181.449 193.549,182.282 194.5,183C 191.876,183.576 191.209,184.91 192.5,187C 190.816,188.74 188.982,189.906 187,190.5C 186.535,191.931 185.701,193.097 184.5,194C 185.654,194.914 185.487,195.747 184,196.5C 181.135,195.959 179.135,197.293 178,200.5C 174.708,200.561 171.708,202.561 169,206.5C 167.951,205.483 166.784,205.316 165.5,206C 163.97,208.197 162.136,209.03 160,208.5C 159.333,211.167 158.667,211.167 158,208.5C 157.581,209.672 156.915,210.672 156,211.5C 154.467,211.056 152.967,210.723 151.5,210.5C 150.522,210.977 149.689,211.643 149,212.5C 147.667,209.833 146.333,209.833 145,212.5C 143.667,211.167 142.333,211.167 141,212.5C 140.147,210.875 139.147,210.542 138,211.5C 134.812,210.233 131.645,209.233 128.5,208.5C 137.728,209.156 146.728,208.156 155.5,205.5C 158.271,205.579 160.937,205.079 163.5,204C 166.222,200.901 169.389,199.401 173,199.5C 178.14,194.36 183.64,188.86 189.5,183C 188.683,180.115 189.516,177.615 192,175.5C 194.295,167.993 195.461,160.326 195.5,152.5C 195.388,145.82 195.054,139.153 194.5,132.5C 194.167,130.5 193.833,128.5 193.5,126.5 Z"/></g>
<g><path style="opacity:1" fill="#b62d22" d="M 123.5,76.5 C 124.338,76.8417 124.672,77.5084 124.5,78.5C 125.758,83.6983 126.425,88.6983 126.5,93.5C 125.841,96.4552 125.508,99.4552 125.5,102.5C 125.667,113.838 125.5,125.172 125,136.5C 124.25,137.126 123.416,137.626 122.5,138C 114.323,138.171 106.323,138.671 98.5,139.5C 90.2267,138.988 81.7267,138.321 73,137.5C 72.0494,137.884 71.2161,138.217 70.5,138.5C 69.8333,138.5 69.1667,138.5 68.5,138.5C 66.58,137.935 64.9133,136.935 63.5,135.5C 73.3763,135.565 83.0429,135.565 92.5,135.5C 102.833,135.5 113.167,135.5 123.5,135.5C 123.217,116.023 123.217,96.6897 123.5,77.5C 123.5,77.1667 123.5,76.8333 123.5,76.5 Z"/></g>
<g><path style="opacity:1" fill="#b45211" d="M 98.5,139.5 C 108.205,139.855 117.538,139.855 126.5,139.5C 128.612,138.725 130.612,138.725 132.5,139.5C 132.5,141.5 132.5,143.5 132.5,145.5C 118.5,145.5 104.5,145.5 90.5,145.5C 89.9661,141.926 88.1328,140.593 85,141.5C 79.9885,140.925 75.1552,139.925 70.5,138.5C 71.2161,138.217 72.0494,137.884 73,137.5C 81.7267,138.321 90.2267,138.988 98.5,139.5 Z"/></g>
<g><path style="opacity:1" fill="#f7b33a" d="M 91.5,84.5 C 76.9743,94.5302 67.641,108.197 63.5,125.5C 62.3547,129.311 62.1881,133.311 63,137.5C 66.8596,138.693 69.3596,141.193 70.5,145C 68.8906,149.89 69.5573,154.724 72.5,159.5C 73.3414,161.379 73.6747,163.379 73.5,165.5C 73.7036,168.545 73.7036,171.379 73.5,174C 74.8802,175.324 75.2135,176.657 74.5,178C 75.8932,179.171 76.7265,180.671 77,182.5C 77.3333,181.833 77.6667,181.167 78,180.5C 78.4652,181.931 79.2986,183.097 80.5,184C 79.7471,185.487 78.9138,185.654 78,184.5C 77.5,186 77,187.5 76.5,189C 77.6824,190.49 78.6824,191.823 79.5,193C 76.8333,195 76.8333,197 79.5,199C 78.8333,199.333 78.1667,199.667 77.5,200C 79.9239,202.554 79.9239,205.054 77.5,207.5C 79.9913,208.541 79.9913,209.374 77.5,210C 78.1667,211 78.8333,212 79.5,213C 79.0469,216.107 79.0469,219.107 79.5,222C 76.7236,223.779 77.0569,224.779 80.5,225C 79.5768,227.048 80.0768,228.881 82,230.5C 83.7506,228.51 84.7506,226.177 85,223.5C 86.016,224.634 86.6827,224.301 87,222.5C 87.8525,224.125 88.8525,224.458 90,223.5C 92.0955,224.715 91.9288,225.549 89.5,226C 90.1667,226.333 90.8333,226.667 91.5,227C 85.9631,234.507 79.6298,240.007 72.5,243.5C 72.3573,245.262 72.6906,246.929 73.5,248.5C 72.147,249.685 70.9803,251.019 70,252.5C 69.1072,251.289 68.2739,251.289 67.5,252.5C 68.8549,253.675 68.6883,254.675 67,255.5C 66.6667,255.167 66.3333,254.833 66,254.5C 65.375,257.612 63.5417,259.445 60.5,260C 61.5,260.333 62.5,260.667 63.5,261C 61.3762,262.122 59.5429,263.622 58,265.5C 56.5952,274.884 54.9286,284.217 53,293.5C 52.0853,292.672 51.4186,291.672 51,290.5C 50.6667,290.833 50.3333,291.167 50,291.5C 49.0124,288.576 48.3457,285.576 48,282.5C 47.5002,271.505 47.3335,260.505 47.5,249.5C 48.3903,256.06 49.3903,262.726 50.5,269.5C 51.5,269.5 52.5,269.5 53.5,269.5C 55.8696,247.248 57.3696,224.915 58,202.5C 58.5,202 59,201.5 59.5,201C 59.5255,196.767 59.1922,192.434 58.5,188C 60.8907,185.4 60.8907,182.733 58.5,180C 58.6079,165.66 58.6079,151.494 58.5,137.5C 58.8258,134.342 59.8258,131.508 61.5,129C 58.8333,128.333 58.8333,127.667 61.5,127C 59.0087,126.374 59.0087,125.541 61.5,124.5C 61.1333,116.059 62.8,108.059 66.5,100.5C 65.2713,99.7189 63.938,99.2189 62.5,99C 63.3247,97.3117 64.3247,97.1451 65.5,98.5C 66.7825,95.6281 66.7825,92.7947 65.5,90C 67.3348,89.0723 67.6682,87.9056 66.5,86.5C 68.1649,85.7482 69.8316,84.2482 71.5,82C 70.8333,81.3333 70.1667,80.6667 69.5,80C 70.5,78.3333 71.5,76.6667 72.5,75C 72.5246,72.9877 72.5246,70.9877 72.5,69C 72.9054,68.0546 73.572,67.3879 74.5,67C 73.8333,66.6667 73.1667,66.3333 72.5,66C 75.6887,65.0192 76.022,63.6859 73.5,62C 76.7836,60.081 78.1169,57.4143 77.5,54C 80.1667,53.3333 80.1667,52.6667 77.5,52C 78.8333,51.6667 80.1667,51.3333 81.5,51C 81.6192,49.7188 81.1192,48.5521 80,47.5C 73.8037,48.4369 66.9704,48.4369 59.5,47.5C 62.6414,46.6787 65.9748,46.1787 69.5,46C 113.833,45.3333 158.167,45.3333 202.5,46C 204.167,47.3333 205.833,48.6667 207.5,50C 200.344,48.9068 193.011,48.4068 185.5,48.5C 168.575,49.6821 153.408,49.6821 140,48.5C 131.483,50.0608 123.816,50.3942 117,49.5C 112.704,49.7954 110.371,52.1288 110,56.5C 109.667,55.8333 109.333,55.1667 109,54.5C 107.632,55.9931 107.465,57.4931 108.5,59C 107.333,60.1667 106.167,61.3333 105,62.5C 103.612,61.4464 102.112,61.2797 100.5,62C 104.5,62.6667 104.5,63.3333 100.5,64C 100.833,64.3333 101.167,64.6667 101.5,65C 100.747,66.487 99.9138,66.6537 99,65.5C 97.1932,68.1523 96.1932,70.819 96,73.5C 95.0975,74.7014 93.9308,75.5348 92.5,76C 93.1667,76.3333 93.8333,76.6667 94.5,77C 92.6992,77.3173 92.3659,77.984 93.5,79C 92.7471,80.487 91.9138,80.6537 91,79.5C 90.6258,80.4162 90.1258,81.2496 89.5,82C 90.3805,82.7083 91.0472,83.5416 91.5,84.5 Z"/></g>
<g><path style="opacity:1" fill="#e79c3b" d="M 63.5,125.5 C 63.5,125.833 63.5,126.167 63.5,126.5C 63.5,129.5 63.5,132.5 63.5,135.5C 64.9133,136.935 66.58,137.935 68.5,138.5C 72.6595,141.01 76.9928,143.343 81.5,145.5C 78.2869,145.19 75.2869,145.523 72.5,146.5C 71.4027,150.777 71.4027,155.11 72.5,159.5C 69.5573,154.724 68.8906,149.89 70.5,145C 69.3596,141.193 66.8596,138.693 63,137.5C 62.1881,133.311 62.3547,129.311 63.5,125.5 Z"/></g>
<g><path style="opacity:1" fill="#d77d1a" d="M 68.5,138.5 C 69.1667,138.5 69.8333,138.5 70.5,138.5C 75.1552,139.925 79.9885,140.925 85,141.5C 88.1328,140.593 89.9661,141.926 90.5,145.5C 87.5,145.5 84.5,145.5 81.5,145.5C 76.9928,143.343 72.6595,141.01 68.5,138.5 Z"/></g>
<g><path style="opacity:1" fill="#aaa6a9" d="M 216.5,140.5 C 220.5,140.5 224.5,140.5 228.5,140.5C 235.5,140.5 242.5,140.5 249.5,140.5C 242.306,141.249 234.972,142.082 227.5,143C 224.624,143.438 221.957,144.438 219.5,146C 218.167,148.667 218.167,151.333 219.5,154C 226.253,158.084 233.587,159.584 241.5,158.5C 245.042,158.187 248.375,158.521 251.5,159.5C 247.167,159.5 242.833,159.5 238.5,159.5C 231.167,159.5 223.833,159.5 216.5,159.5C 216.5,153.167 216.5,146.833 216.5,140.5 Z"/></g>
<g><path style="opacity:1" fill="#c1bfbf" d="M 257.5,128.5 C 260.127,132.34 259.794,136.173 256.5,140C 253.382,141.372 250.216,142.538 247,143.5C 242.936,143.266 238.602,143.266 234,143.5C 231.307,143.953 229.473,145.453 228.5,148C 229.833,150 229.833,152 228.5,154C 232.614,156.539 236.947,158.039 241.5,158.5C 233.587,159.584 226.253,158.084 219.5,154C 218.167,151.333 218.167,148.667 219.5,146C 221.957,144.438 224.624,143.438 227.5,143C 234.972,142.082 242.306,141.249 249.5,140.5C 256.119,139.204 258.785,135.204 257.5,128.5 Z"/></g>
<g><path style="opacity:1" fill="#865d65" d="M 133.5,87.5 C 133.5,107.167 133.5,126.833 133.5,146.5C 113.167,146.5 92.8333,146.5 72.5,146.5C 75.2869,145.523 78.2869,145.19 81.5,145.5C 84.5,145.5 87.5,145.5 90.5,145.5C 104.5,145.5 118.5,145.5 132.5,145.5C 132.5,143.5 132.5,141.5 132.5,139.5C 132.5,125.5 132.5,111.5 132.5,97.5C 132.5,95.1667 132.5,92.8333 132.5,90.5C 132.263,89.209 132.596,88.209 133.5,87.5 Z"/></g>
<g><path style="opacity:1" fill="#6b91e2" d="M 147.5,86.5 C 143.833,86.5 140.167,86.5 136.5,86.5C 136.125,107.166 135.792,127.832 135.5,148.5C 123.137,148.601 110.803,149.268 98.5,150.5C 96.0776,152.286 96.0776,153.952 98.5,155.5C 98.3717,158.193 97.3717,160.859 95.5,163.5C 95.45,165.831 95.7834,167.997 96.5,170C 95.5294,171.204 94.5294,171.704 93.5,171.5C 96.1306,173.005 95.7973,173.671 92.5,173.5C 92.33,174.822 92.6634,175.989 93.5,177C 89.5,177.667 89.5,178.333 93.5,179C 89.5,179.667 89.5,180.333 93.5,181C 92.8333,181.333 92.1667,181.667 91.5,182C 90.917,183.619 90.917,185.452 91.5,187.5C 90.9747,188.192 90.3081,188.692 89.5,189C 91.7147,190.379 93.3813,192.213 94.5,194.5C 91.2099,192.876 88.5433,190.543 86.5,187.5C 86.573,185.973 85.9063,184.973 84.5,184.5C 83.8333,183.833 83.1667,183.167 82.5,182.5C 82.573,180.973 81.9063,179.973 80.5,179.5C 80.3404,177.847 79.6737,176.514 78.5,175.5C 78.573,173.973 77.9063,172.973 76.5,172.5C 75.3443,170.176 74.3443,167.843 73.5,165.5C 73.6747,163.379 73.3414,161.379 72.5,159.5C 71.4027,155.11 71.4027,150.777 72.5,146.5C 92.8333,146.5 113.167,146.5 133.5,146.5C 133.5,126.833 133.5,107.167 133.5,87.5C 133.414,86.5041 133.748,85.6708 134.5,85C 138.5,84.3333 142.5,84.3333 146.5,85C 147.056,85.3826 147.389,85.8826 147.5,86.5 Z"/></g>
<g><path style="opacity:1" fill="#5785e1" d="M 147.5,86.5 C 149.527,86.3379 151.527,86.5045 153.5,87C 156.064,88.3961 158.731,89.5627 161.5,90.5C 161.973,91.9063 162.973,92.573 164.5,92.5C 166.062,92.7329 167.395,93.3995 168.5,94.5C 168.833,95.1667 169.167,95.8333 169.5,96.5C 166.101,95.9836 162.768,95.1503 159.5,94C 156.695,90.4637 153.361,89.797 149.5,92C 149.833,92.3333 150.167,92.6667 150.5,93C 147.874,95.3235 145.207,97.6568 142.5,100C 142.833,100.333 143.167,100.667 143.5,101C 141.479,103.043 141.146,105.043 142.5,107C 141.833,109.333 141.167,111.667 140.5,114C 140.833,115 141.167,116 141.5,117C 139.832,118.567 139.498,120.234 140.5,122C 138.049,130.64 136.882,139.473 137,148.5C 135.383,149.536 135.216,150.703 136.5,152C 135.346,154.573 133.68,156.739 131.5,158.5C 131.977,159.478 132.643,160.311 133.5,161C 132.675,162.688 131.675,162.855 130.5,161.5C 129.376,162.914 128.376,164.414 127.5,166C 128.167,166.333 128.833,166.667 129.5,167C 126.833,167.667 126.833,168.333 129.5,169C 127.697,170.262 126.364,171.929 125.5,174C 126.343,175.787 126.51,177.62 126,179.5C 127.73,179.509 129.563,179.842 131.5,180.5C 133.908,183.131 133.908,185.631 131.5,188C 127.74,189.176 124.907,188.01 123,184.5C 122.5,185.667 121.667,186.5 120.5,187C 120.833,188.667 121.167,190.333 121.5,192C 121,192.5 120.5,193 120,193.5C 118.984,192.366 118.317,192.699 118,194.5C 117.016,192.205 116.183,192.539 115.5,195.5C 116.747,197.042 116.747,198.542 115.5,200C 116.973,200.71 117.64,201.876 117.5,203.5C 116.5,203.5 115.5,203.5 114.5,203.5C 113.373,202.878 112.373,202.045 111.5,201C 106.734,199.782 102.067,198.282 97.5,196.5C 96.5,195.833 95.5,195.167 94.5,194.5C 93.3813,192.213 91.7147,190.379 89.5,189C 90.3081,188.692 90.9747,188.192 91.5,187.5C 90.917,185.452 90.917,183.619 91.5,182C 92.1667,181.667 92.8333,181.333 93.5,181C 89.5,180.333 89.5,179.667 93.5,179C 89.5,178.333 89.5,177.667 93.5,177C 92.6634,175.989 92.33,174.822 92.5,173.5C 95.7973,173.671 96.1306,173.005 93.5,171.5C 94.5294,171.704 95.5294,171.204 96.5,170C 95.7834,167.997 95.45,165.831 95.5,163.5C 97.3717,160.859 98.3717,158.193 98.5,155.5C 96.0776,153.952 96.0776,152.286 98.5,150.5C 110.803,149.268 123.137,148.601 135.5,148.5C 135.792,127.832 136.125,107.166 136.5,86.5C 140.167,86.5 143.833,86.5 147.5,86.5 Z"/></g>
<g><path style="opacity:1" fill="#4b4b63" d="M 238.5,159.5 C 242.833,159.5 247.167,159.5 251.5,159.5C 253.404,159.738 254.738,160.738 255.5,162.5C 247.493,162.666 239.493,162.5 231.5,162C 234.361,162.03 236.695,161.197 238.5,159.5 Z"/></g>
<g><path style="opacity:1" fill="#32344f" d="M 216.5,159.5 C 223.833,159.5 231.167,159.5 238.5,159.5C 236.695,161.197 234.361,162.03 231.5,162C 239.493,162.5 247.493,162.666 255.5,162.5C 256.117,162.611 256.617,162.944 257,163.5C 257.678,167.221 257.511,170.888 256.5,174.5C 255.317,175.504 253.984,176.338 252.5,177C 240.505,177.5 228.505,177.667 216.5,177.5C 216.5,171.5 216.5,165.5 216.5,159.5 Z"/></g>
<g><path style="opacity:1" fill="#cb782c" d="M 195.5,152.5 C 195.461,160.326 194.295,167.993 192,175.5C 189.516,177.615 188.683,180.115 189.5,183C 183.64,188.86 178.14,194.36 173,199.5C 169.389,199.401 166.222,200.901 163.5,204C 160.937,205.079 158.271,205.579 155.5,205.5C 156.5,204.833 157.5,204.167 158.5,203.5C 164.608,199.602 170.608,195.436 176.5,191C 186.487,179.861 192.82,167.028 195.5,152.5 Z"/></g>
<g><path style="opacity:1" fill="#b8957b" d="M 76.5,172.5 C 77.9063,172.973 78.573,173.973 78.5,175.5C 77.0937,175.027 76.427,174.027 76.5,172.5 Z"/></g>
<g><path style="opacity:1" fill="#bebcbd" d="M 256.5,174.5 C 256.374,177.595 254.707,179.428 251.5,180C 246.996,180.998 242.496,181.831 238,182.5C 237.667,182.167 237.333,181.833 237,181.5C 234.627,182.424 232.794,183.924 231.5,186C 233.394,187.775 235.061,189.775 236.5,192C 235.167,193.84 235.334,194.34 237,193.5C 241.502,195.066 246.168,196.066 251,196.5C 252.376,196.684 253.209,197.351 253.5,198.5C 241.247,197.521 228.913,197.187 216.5,197.5C 216.5,190.833 216.5,184.167 216.5,177.5C 228.505,177.667 240.505,177.5 252.5,177C 253.984,176.338 255.317,175.504 256.5,174.5 Z"/></g>
<g><path style="opacity:1" fill="#a78e83" d="M 80.5,179.5 C 81.9063,179.973 82.573,180.973 82.5,182.5C 81.0937,182.027 80.427,181.027 80.5,179.5 Z"/></g>
<g><path style="opacity:1" fill="#a38a7f" d="M 84.5,184.5 C 85.9063,184.973 86.573,185.973 86.5,187.5C 85.0937,187.027 84.427,186.027 84.5,184.5 Z"/></g>
<g><path style="opacity:1" fill="#42435b" d="M 216.5,197.5 C 228.913,197.187 241.247,197.521 253.5,198.5C 257.534,202.351 258.534,207.017 256.5,212.5C 252.895,216.001 248.561,217.335 243.5,216.5C 233.319,216.827 223.319,216.494 213.5,215.5C 223.506,215.666 233.506,215.5 243.5,215C 237.5,214.667 231.5,214.333 225.5,214C 234.392,213.507 243.892,212.341 254,210.5C 254.339,207.964 254.839,205.464 255.5,203C 255.167,202.5 254.833,202 254.5,201.5C 242.013,201.547 229.346,201.547 216.5,201.5C 216.5,200.167 216.5,198.833 216.5,197.5 Z"/></g>
<g><path style="opacity:1" fill="#2d304d" d="M 216.5,201.5 C 229.346,201.547 242.013,201.547 254.5,201.5C 254.833,202 255.167,202.5 255.5,203C 254.839,205.464 254.339,207.964 254,210.5C 243.892,212.341 234.392,213.507 225.5,214C 231.5,214.333 237.5,214.667 243.5,215C 233.506,215.5 223.506,215.666 213.5,215.5C 213.5,215.167 213.5,214.833 213.5,214.5C 215.881,210.519 216.881,206.186 216.5,201.5 Z"/></g>
<g><path style="opacity:1" fill="#6266a8" d="M 97.5,196.5 C 102.067,198.282 106.734,199.782 111.5,201C 112.373,202.045 113.373,202.878 114.5,203.5C 116.607,204.468 118.941,204.802 121.5,204.5C 124.203,206.11 127.203,207.11 130.5,207.5C 127.833,207.5 125.167,207.5 122.5,207.5C 120.5,207.167 118.5,206.833 116.5,206.5C 113.888,205.629 111.221,204.963 108.5,204.5C 106.206,202.347 103.54,200.68 100.5,199.5C 99.3065,198.728 98.3065,197.728 97.5,196.5 Z"/></g>
<g><path style="opacity:1" fill="#9f7360" d="M 158.5,203.5 C 157.5,204.167 156.5,204.833 155.5,205.5C 146.728,208.156 137.728,209.156 128.5,208.5C 126.265,208.795 124.265,208.461 122.5,207.5C 125.167,207.5 127.833,207.5 130.5,207.5C 134.846,207.666 139.179,207.499 143.5,207C 148.493,205.723 153.493,204.556 158.5,203.5 Z"/></g>
<g><path style="opacity:1" fill="#f3aa2c" d="M 73.5,165.5 C 74.3443,167.843 75.3443,170.176 76.5,172.5C 76.427,174.027 77.0937,175.027 78.5,175.5C 79.6737,176.514 80.3404,177.847 80.5,179.5C 80.427,181.027 81.0937,182.027 82.5,182.5C 83.1667,183.167 83.8333,183.833 84.5,184.5C 84.427,186.027 85.0937,187.027 86.5,187.5C 88.5433,190.543 91.2099,192.876 94.5,194.5C 95.5,195.167 96.5,195.833 97.5,196.5C 98.3065,197.728 99.3065,198.728 100.5,199.5C 99.5041,199.414 98.6708,199.748 98,200.5C 97.1667,198 96,197.833 94.5,200C 96.7557,202.182 96.7557,204.515 94.5,207C 96.7989,208.664 99.1322,210.331 101.5,212C 100.833,212.667 100.167,213.333 99.5,214C 100.833,215.333 102.167,216.667 103.5,218C 102.833,218.333 102.167,218.667 101.5,219C 103.719,220.763 105.719,222.763 107.5,225C 106.288,226.107 106.621,226.607 108.5,226.5C 107.391,227.29 106.058,227.79 104.5,228C 108.449,228.807 108.449,229.307 104.5,229.5C 104.261,231.467 104.594,233.301 105.5,235C 103.009,235.626 103.009,236.459 105.5,237.5C 104.917,239.548 104.917,241.381 105.5,243C 104.134,244.6 103.134,246.433 102.5,248.5C 101.575,249.641 100.741,249.641 100,248.5C 99.6905,249.766 99.1905,250.933 98.5,252C 98.8333,253.667 99.1667,255.333 99.5,257C 97.683,258.8 96.5163,260.966 96,263.5C 94.4452,265.146 92.7785,265.479 91,264.5C 90.2496,265.126 89.4162,265.626 88.5,266C 88.8333,266.333 89.1667,266.667 89.5,267C 87.9512,268.214 86.7845,269.714 86,271.5C 85.6667,271.167 85.3333,270.833 85,270.5C 82.4453,272.055 80.6119,274.222 79.5,277C 75.5,277.667 75.5,278.333 79.5,279C 78.6667,279.833 77.8333,280.667 77,281.5C 76.1072,280.289 75.2739,280.289 74.5,281.5C 74.7093,282.086 75.0426,282.586 75.5,283C 73.9315,285.304 72.7648,287.804 72,290.5C 70,289.167 68,289.167 66,290.5C 65.6667,289.833 65.3333,289.167 65,288.5C 64.5814,289.672 63.9147,290.672 63,291.5C 61.6124,290.446 60.1124,290.28 58.5,291C 53.475,310.443 49.6416,309.943 47,289.5C 46.5001,276.171 46.3334,262.837 46.5,249.5C 46.8333,249.5 47.1667,249.5 47.5,249.5C 47.3335,260.505 47.5002,271.505 48,282.5C 48.3457,285.576 49.0124,288.576 50,291.5C 50.3333,291.167 50.6667,290.833 51,290.5C 51.4186,291.672 52.0853,292.672 53,293.5C 54.9286,284.217 56.5952,274.884 58,265.5C 59.5429,263.622 61.3762,262.122 63.5,261C 62.5,260.667 61.5,260.333 60.5,260C 63.5417,259.445 65.375,257.612 66,254.5C 66.3333,254.833 66.6667,255.167 67,255.5C 68.6883,254.675 68.8549,253.675 67.5,252.5C 68.2739,251.289 69.1072,251.289 70,252.5C 70.9803,251.019 72.147,249.685 73.5,248.5C 72.6906,246.929 72.3573,245.262 72.5,243.5C 79.6298,240.007 85.9631,234.507 91.5,227C 90.8333,226.667 90.1667,226.333 89.5,226C 91.9288,225.549 92.0955,224.715 90,223.5C 88.8525,224.458 87.8525,224.125 87,222.5C 86.6827,224.301 86.016,224.634 85,223.5C 84.7506,226.177 83.7506,228.51 82,230.5C 80.0768,228.881 79.5768,227.048 80.5,225C 77.0569,224.779 76.7236,223.779 79.5,222C 79.0469,219.107 79.0469,216.107 79.5,213C 78.8333,212 78.1667,211 77.5,210C 79.9913,209.374 79.9913,208.541 77.5,207.5C 79.9239,205.054 79.9239,202.554 77.5,200C 78.1667,199.667 78.8333,199.333 79.5,199C 76.8333,197 76.8333,195 79.5,193C 78.6824,191.823 77.6824,190.49 76.5,189C 77,187.5 77.5,186 78,184.5C 78.9138,185.654 79.7471,185.487 80.5,184C 79.2986,183.097 78.4652,181.931 78,180.5C 77.6667,181.167 77.3333,181.833 77,182.5C 76.7265,180.671 75.8932,179.171 74.5,178C 75.2135,176.657 74.8802,175.324 73.5,174C 73.7036,171.379 73.7036,168.545 73.5,165.5 Z"/></g>
<g><path style="opacity:1" fill="#cfcece" d="M 227.5,77.5 C 229.527,77.3379 231.527,77.5045 233.5,78C 234.833,78.6667 234.833,79.3333 233.5,80C 236.167,80.6667 236.167,81.3333 233.5,82C 236.954,82.2929 237.288,83.6262 234.5,86C 235.672,86.4186 236.672,87.0853 237.5,88C 238.239,89.7646 238.239,91.7646 237.5,94C 238.88,95.3236 239.214,96.6569 238.5,98C 240.441,99.8159 241.108,101.816 240.5,104C 242.125,104.853 242.458,105.853 241.5,107C 242.717,108.648 243.55,110.481 244,112.5C 244.333,111.833 244.667,111.167 245,110.5C 245.249,113.177 246.249,115.51 248,117.5C 248.333,116.833 248.667,116.167 249,115.5C 249.652,117.723 251.152,118.89 253.5,119C 255.891,122.297 258.391,125.463 261,128.5C 262.269,133.578 262.269,138.578 261,143.5C 260.667,142.833 260.333,142.167 260,141.5C 258.934,144.563 256.767,146.063 253.5,146C 252.504,148.316 251.504,150.65 250.5,153C 251.535,154.274 252.702,155.44 254,156.5C 254.667,155.167 255.333,155.167 256,156.5C 259.016,159.851 261.183,163.684 262.5,168C 262.265,170.352 262.099,172.852 262,175.5C 258.213,179.579 255.046,184.079 252.5,189C 251.942,191.852 253.275,193.852 256.5,195C 256.167,195.333 255.833,195.667 255.5,196C 260.486,199.624 262.319,204.457 261,210.5C 260.16,216.322 257.16,219.655 252,220.5C 251.71,222.044 251.044,223.377 250,224.5C 249,224.167 248,223.833 247,223.5C 246.333,224.833 245.667,226.167 245,227.5C 244.195,225.099 243.362,225.266 242.5,228C 246.879,229.023 250.879,230.856 254.5,233.5C 261.71,242.1 261.043,249.933 252.5,257C 246.785,258.789 240.951,258.622 235,256.5C 230.601,257.038 226.267,257.704 222,258.5C 220.333,258.167 218.667,257.833 217,257.5C 216.333,258.167 215.667,258.833 215,259.5C 213.602,258.949 212.268,258.616 211,258.5C 210,259.5 209,260.5 208,261.5C 207.667,260.833 207.333,260.167 207,259.5C 206.333,260.833 205.333,261.833 204,262.5C 203.383,263.449 203.549,264.282 204.5,265C 201.997,266.549 201.997,268.216 204.5,270C 203.672,270.915 202.672,271.581 201.5,272C 202.545,273.616 203.545,275.283 204.5,277C 203.315,278.353 201.981,279.52 200.5,280.5C 201.34,281.735 202.34,282.735 203.5,283.5C 197.664,285.034 191.997,284.534 186.5,282C 187.833,281.333 187.833,280.667 186.5,280C 189.167,279.333 189.167,278.667 186.5,278C 189.167,277.333 189.167,276.667 186.5,276C 189.167,275.333 189.167,274.667 186.5,274C 187.167,273.667 187.833,273.333 188.5,273C 187.521,271.221 187.854,269.555 189.5,268C 188.167,265.333 188.167,262.667 189.5,260C 193.376,256.256 198.043,254.59 203.5,255C 219.672,254.831 235.672,254.331 251.5,253.5C 257.064,250.936 258.898,246.603 257,240.5C 256.215,238.714 255.049,237.214 253.5,236C 245.946,234.568 238.279,234.068 230.5,234.5C 223.935,233.88 217.268,233.047 210.5,232C 209.241,231.077 207.908,230.243 206.5,229.5C 207.529,229.704 208.529,229.204 209.5,228C 208.167,226.16 208.334,225.66 210,226.5C 210.75,225.874 211.584,225.374 212.5,225C 212.167,224.667 211.833,224.333 211.5,224C 215.617,220.846 220.283,218.846 225.5,218C 231.681,217.828 237.681,217.328 243.5,216.5C 248.561,217.335 252.895,216.001 256.5,212.5C 258.534,207.017 257.534,202.351 253.5,198.5C 253.209,197.351 252.376,196.684 251,196.5C 246.168,196.066 241.502,195.066 237,193.5C 235.334,194.34 235.167,193.84 236.5,192C 235.061,189.775 233.394,187.775 231.5,186C 232.794,183.924 234.627,182.424 237,181.5C 237.333,181.833 237.667,182.167 238,182.5C 242.496,181.831 246.996,180.998 251.5,180C 254.707,179.428 256.374,177.595 256.5,174.5C 257.511,170.888 257.678,167.221 257,163.5C 256.617,162.944 256.117,162.611 255.5,162.5C 254.738,160.738 253.404,159.738 251.5,159.5C 248.375,158.521 245.042,158.187 241.5,158.5C 236.947,158.039 232.614,156.539 228.5,154C 229.833,152 229.833,150 228.5,148C 229.473,145.453 231.307,143.953 234,143.5C 238.602,143.266 242.936,143.266 247,143.5C 250.216,142.538 253.382,141.372 256.5,140C 259.794,136.173 260.127,132.34 257.5,128.5C 257.672,127.508 257.338,126.842 256.5,126.5C 255.72,123.447 253.72,121.78 250.5,121.5C 248.239,119.949 245.739,118.616 243,117.5C 242.667,117.833 242.333,118.167 242,118.5C 241.683,116.699 241.016,116.366 240,117.5C 239.683,115.699 239.016,115.366 238,116.5C 236.702,115.44 235.535,114.274 234.5,113C 234.645,112.228 234.978,111.561 235.5,111C 234.638,108.266 233.805,108.099 233,110.5C 232.125,109.127 231.625,107.627 231.5,106C 232.732,103.973 232.398,102.64 230.5,102C 230.29,98.1742 230.623,94.5076 231.5,91C 230.009,88.9031 229.009,86.5697 228.5,84C 229.634,82.984 229.301,82.3173 227.5,82C 227.736,80.5491 227.736,79.0491 227.5,77.5 Z"/></g>
<g><path style="opacity:1" fill="#b7b1af" d="M 213.5,214.5 C 213.5,214.833 213.5,215.167 213.5,215.5C 223.319,216.494 233.319,216.827 243.5,216.5C 237.681,217.328 231.681,217.828 225.5,218C 220.283,218.846 215.617,220.846 211.5,224C 211.833,224.333 212.167,224.667 212.5,225C 211.584,225.374 210.75,225.874 210,226.5C 208.334,225.66 208.167,226.16 209.5,228C 208.529,229.204 207.529,229.704 206.5,229.5C 207.908,230.243 209.241,231.077 210.5,232C 217.268,233.047 223.935,233.88 230.5,234.5C 222.833,234.5 215.167,234.5 207.5,234.5C 200.833,234.5 194.167,234.5 187.5,234.5C 187.953,233.542 188.619,232.708 189.5,232C 195.5,228.667 201.5,225.333 207.5,222C 210.121,219.886 212.121,217.386 213.5,214.5 Z"/></g>
<g><path style="opacity:1" fill="#efa01c" d="M 181.5,233.5 C 180.093,235.308 178.926,237.308 178,239.5C 177.648,247.177 177.148,254.844 176.5,262.5C 177.145,273.177 177.311,284.511 177,296.5C 176.776,301.364 174.609,305.031 170.5,307.5C 169.614,308.325 169.281,309.325 169.5,310.5C 168.5,310.5 167.5,310.5 166.5,310.5C 131.005,309.177 95.5046,309.177 60,310.5C 55.6507,310.079 51.484,309.413 47.5,308.5C 52.9949,308.321 58.3283,308.321 63.5,308.5C 66.0543,307.46 68.2209,306.127 70,304.5C 70.3333,305.167 70.6667,305.833 71,306.5C 72.2531,300.798 75.2531,298.798 80,300.5C 81.3333,299.167 82.6667,297.833 84,296.5C 84.3333,296.833 84.6667,297.167 85,297.5C 87.9281,296.24 89.7614,294.073 90.5,291C 92.9962,289.92 95.3295,288.586 97.5,287C 97.1667,286.667 96.8333,286.333 96.5,286C 98.4605,283.365 100.961,281.531 104,280.5C 104.611,275.504 105.111,270.504 105.5,265.5C 108.118,265.221 110.618,264.554 113,263.5C 114.343,259.137 114.51,255.304 113.5,252C 114.376,250.414 115.376,248.914 116.5,247.5C 117.192,242.952 117.859,238.452 118.5,234C 118.272,233.601 117.938,233.435 117.5,233.5C 117.264,230.774 118.097,228.441 120,226.5C 120.667,229.167 121.333,229.167 122,226.5C 124.333,226.833 126.667,227.167 129,227.5C 129.333,226.833 129.667,226.167 130,225.5C 130.748,227.332 131.748,228.999 133,230.5C 135.361,229.934 137.194,230.934 138.5,233.5C 139.192,232.975 139.692,232.308 140,231.5C 142.944,233.771 146.278,235.105 150,235.5C 151.147,234.542 152.147,234.875 153,236.5C 154.131,235.396 154.965,235.729 155.5,237.5C 154.998,238.716 154.665,239.883 154.5,241C 156.724,243.149 158.224,242.649 159,239.5C 160.907,239.421 162.907,239.754 165,240.5C 165.308,239.692 165.808,239.025 166.5,238.5C 167.5,239.167 168.5,239.833 169.5,240.5C 171.021,240.12 172.687,239.954 174.5,240C 176.071,236.926 178.404,234.76 181.5,233.5 Z"/></g>
<g><path style="opacity:1" fill="#f0a521" d="M 117.5,233.5 C 117.938,233.435 118.272,233.601 118.5,234C 117.859,238.452 117.192,242.952 116.5,247.5C 115.376,248.914 114.376,250.414 113.5,252C 114.51,255.304 114.343,259.137 113,263.5C 110.618,264.554 108.118,265.221 105.5,265.5C 105.111,270.504 104.611,275.504 104,280.5C 100.961,281.531 98.4605,283.365 96.5,286C 96.8333,286.333 97.1667,286.667 97.5,287C 95.3295,288.586 92.9962,289.92 90.5,291C 89.7614,294.073 87.9281,296.24 85,297.5C 84.6667,297.167 84.3333,296.833 84,296.5C 82.6667,297.833 81.3333,299.167 80,300.5C 75.2531,298.798 72.2531,300.798 71,306.5C 70.6667,305.833 70.3333,305.167 70,304.5C 68.2209,306.127 66.0543,307.46 63.5,308.5C 58.3283,308.321 52.9949,308.321 47.5,308.5C 47.1667,308.5 46.8333,308.5 46.5,308.5C 45.9051,283.154 45.2384,257.821 44.5,232.5C 44.5427,231.584 44.8761,230.917 45.5,230.5C 45.2627,231.791 45.596,232.791 46.5,233.5C 46.5,238.833 46.5,244.167 46.5,249.5C 46.3334,262.837 46.5001,276.171 47,289.5C 49.6416,309.943 53.475,310.443 58.5,291C 60.1124,290.28 61.6124,290.446 63,291.5C 63.9147,290.672 64.5814,289.672 65,288.5C 65.3333,289.167 65.6667,289.833 66,290.5C 68,289.167 70,289.167 72,290.5C 72.7648,287.804 73.9315,285.304 75.5,283C 75.0426,282.586 74.7093,282.086 74.5,281.5C 75.2739,280.289 76.1072,280.289 77,281.5C 77.8333,280.667 78.6667,279.833 79.5,279C 75.5,278.333 75.5,277.667 79.5,277C 80.6119,274.222 82.4453,272.055 85,270.5C 85.3333,270.833 85.6667,271.167 86,271.5C 86.7845,269.714 87.9512,268.214 89.5,267C 89.1667,266.667 88.8333,266.333 88.5,266C 89.4162,265.626 90.2496,265.126 91,264.5C 92.7785,265.479 94.4452,265.146 96,263.5C 96.5163,260.966 97.683,258.8 99.5,257C 99.1667,255.333 98.8333,253.667 98.5,252C 99.1905,250.933 99.6905,249.766 100,248.5C 100.741,249.641 101.575,249.641 102.5,248.5C 103.134,246.433 104.134,244.6 105.5,243C 104.917,241.381 104.917,239.548 105.5,237.5C 103.009,236.459 103.009,235.626 105.5,235C 104.594,233.301 104.261,231.467 104.5,229.5C 108.449,229.307 108.449,228.807 104.5,228C 106.058,227.79 107.391,227.29 108.5,226.5C 108.369,225.761 108.536,225.094 109,224.5C 109.36,226.608 110.027,228.608 111,230.5C 111.333,229.833 111.667,229.167 112,228.5C 112.5,229.667 113.333,230.5 114.5,231C 113.833,231.333 113.167,231.667 112.5,232C 114.16,233.264 115.827,233.764 117.5,233.5 Z"/></g>
<g><path style="opacity:1" fill="#e5a043" d="M 216.5,73.5 C 216.5,74.5 216.5,75.5 216.5,76.5C 216.5,91.5 216.5,106.5 216.5,121.5C 216.5,121.833 216.5,122.167 216.5,122.5C 216.5,123.5 216.5,124.5 216.5,125.5C 216.5,130.5 216.5,135.5 216.5,140.5C 216.5,146.833 216.5,153.167 216.5,159.5C 216.5,165.5 216.5,171.5 216.5,177.5C 216.5,184.167 216.5,190.833 216.5,197.5C 216.5,198.833 216.5,200.167 216.5,201.5C 216.881,206.186 215.881,210.519 213.5,214.5C 212.121,217.386 210.121,219.886 207.5,222C 201.5,225.333 195.5,228.667 189.5,232C 188.619,232.708 187.953,233.542 187.5,234.5C 186.508,234.328 185.842,234.662 185.5,235.5C 183.469,236.539 182.136,238.205 181.5,240.5C 180.564,244.735 180.231,249.069 180.5,253.5C 180.5,253.833 180.5,254.167 180.5,254.5C 180.5,265.167 180.5,275.833 180.5,286.5C 200.5,286.5 220.5,286.5 240.5,286.5C 229.346,287.495 218.012,287.828 206.5,287.5C 197.833,287.5 189.167,287.5 180.5,287.5C 180.5,291.5 180.5,295.5 180.5,299.5C 184.179,299.724 187.846,300.058 191.5,300.5C 187.647,301.166 183.647,301.833 179.5,302.5C 177.525,306.14 174.858,309.14 171.5,311.5C 171.158,310.662 170.492,310.328 169.5,310.5C 169.281,309.325 169.614,308.325 170.5,307.5C 174.609,305.031 176.776,301.364 177,296.5C 177.311,284.511 177.145,273.177 176.5,262.5C 177.148,254.844 177.648,247.177 178,239.5C 178.926,237.308 180.093,235.308 181.5,233.5C 183.599,232.388 185.933,231.721 188.5,231.5C 188.561,229.408 189.561,227.908 191.5,227C 196.682,224.243 202.015,221.743 207.5,219.5C 210.171,216.163 212.337,212.496 214,208.5C 214.352,163.328 215.186,118.328 216.5,73.5 Z"/></g>
<g><path style="opacity:1" fill="#150d16" d="M 185.5,235.5 C 191.868,235.17 198.202,235.504 204.5,236.5C 204.333,236.833 204.167,237.167 204,237.5C 202.221,236.521 200.555,236.854 199,238.5C 198.667,238.167 198.333,237.833 198,237.5C 192.599,237.904 187.099,238.904 181.5,240.5C 182.136,238.205 183.469,236.539 185.5,235.5 Z"/></g>
<g><path style="opacity:1" fill="#28283f" d="M 185.5,235.5 C 185.842,234.662 186.508,234.328 187.5,234.5C 194.167,234.5 200.833,234.5 207.5,234.5C 219.326,235.331 231.326,235.831 243.5,236C 231.623,236.067 219.956,236.9 208.5,238.5C 208.631,239.239 208.464,239.906 208,240.5C 207.577,239.044 206.744,238.544 205.5,239C 205.833,239.333 206.167,239.667 206.5,240C 204.047,241.88 202.047,244.213 200.5,247C 201.654,247.914 201.487,248.747 200,249.5C 199.667,249.167 199.333,248.833 199,248.5C 199.487,250.044 199.987,251.71 200.5,253.5C 193.833,253.5 187.167,253.5 180.5,253.5C 180.231,249.069 180.564,244.735 181.5,240.5C 187.099,238.904 192.599,237.904 198,237.5C 198.333,237.833 198.667,238.167 199,238.5C 200.555,236.854 202.221,236.521 204,237.5C 204.167,237.167 204.333,236.833 204.5,236.5C 198.202,235.504 191.868,235.17 185.5,235.5 Z"/></g>
<g><path style="opacity:1" fill="#2f3250" d="M 208.5,238.5 C 222.32,239.346 236.987,239.679 252.5,239.5C 253.28,242.709 253.114,245.709 252,248.5C 251.667,247.833 251.333,247.167 251,246.5C 249.667,250.5 248.333,250.5 247,246.5C 246.632,247.91 245.799,248.91 244.5,249.5C 243.5,248.167 242.5,248.167 241.5,249.5C 240.808,248.975 240.308,248.308 240,247.5C 239.395,249.481 238.395,249.815 237,248.5C 235.559,249.26 234.059,249.926 232.5,250.5C 229.532,249.632 226.699,249.299 224,249.5C 222.221,251.017 222.721,251.851 225.5,252C 224.944,252.383 224.611,252.883 224.5,253.5C 216.5,253.5 208.5,253.5 200.5,253.5C 199.987,251.71 199.487,250.044 199,248.5C 199.333,248.833 199.667,249.167 200,249.5C 201.487,248.747 201.654,247.914 200.5,247C 202.047,244.213 204.047,241.88 206.5,240C 206.167,239.667 205.833,239.333 205.5,239C 206.744,238.544 207.577,239.044 208,240.5C 208.464,239.906 208.631,239.239 208.5,238.5 Z"/></g>
<g><path style="opacity:1" fill="#44455e" d="M 207.5,234.5 C 215.167,234.5 222.833,234.5 230.5,234.5C 238.279,234.068 245.946,234.568 253.5,236C 255.049,237.214 256.215,238.714 257,240.5C 258.898,246.603 257.064,250.936 251.5,253.5C 242.5,253.5 233.5,253.5 224.5,253.5C 224.611,252.883 224.944,252.383 225.5,252C 222.721,251.851 222.221,251.017 224,249.5C 226.699,249.299 229.532,249.632 232.5,250.5C 234.059,249.926 235.559,249.26 237,248.5C 238.395,249.815 239.395,249.481 240,247.5C 240.308,248.308 240.808,248.975 241.5,249.5C 242.5,248.167 243.5,248.167 244.5,249.5C 245.799,248.91 246.632,247.91 247,246.5C 248.333,250.5 249.667,250.5 251,246.5C 251.333,247.167 251.667,247.833 252,248.5C 253.114,245.709 253.28,242.709 252.5,239.5C 236.987,239.679 222.32,239.346 208.5,238.5C 219.956,236.9 231.623,236.067 243.5,236C 231.326,235.831 219.326,235.331 207.5,234.5 Z"/></g>
<g><path style="opacity:1" fill="#b9b6b6" d="M 180.5,254.5 C 180.5,254.167 180.5,253.833 180.5,253.5C 187.167,253.5 193.833,253.5 200.5,253.5C 208.5,253.5 216.5,253.5 224.5,253.5C 233.5,253.5 242.5,253.5 251.5,253.5C 235.672,254.331 219.672,254.831 203.5,255C 198.043,254.59 193.376,256.256 189.5,260C 188.167,262.667 188.167,265.333 189.5,268C 187.854,269.555 187.521,271.221 188.5,273C 187.833,273.333 187.167,273.667 186.5,274C 189.167,274.667 189.167,275.333 186.5,276C 189.167,276.667 189.167,277.333 186.5,278C 189.167,278.667 189.167,279.333 186.5,280C 187.833,280.667 187.833,281.333 186.5,282C 191.997,284.534 197.664,285.034 203.5,283.5C 210.6,284.134 217.6,284.801 224.5,285.5C 210.167,285.5 195.833,285.5 181.5,285.5C 181.828,274.986 181.494,264.653 180.5,254.5 Z"/></g>
<g><path style="opacity:1" fill="#c7ad95" d="M 180.5,254.5 C 181.494,264.653 181.828,274.986 181.5,285.5C 195.833,285.5 210.167,285.5 224.5,285.5C 231.841,285.334 239.174,285.5 246.5,286C 245.262,286.69 245.262,287.19 246.5,287.5C 246.5,288.167 246.167,288.5 245.5,288.5C 244.18,287.058 242.514,286.392 240.5,286.5C 220.5,286.5 200.5,286.5 180.5,286.5C 180.5,275.833 180.5,265.167 180.5,254.5 Z"/></g>
<g><path style="opacity:1" fill="#d87d18" d="M 206.5,287.5 C 206.587,290.598 206.087,290.932 205,288.5C 204.641,291.544 203.974,291.878 203,289.5C 202.333,290.833 201.667,292.167 201,293.5C 200.667,292.833 200.333,292.167 200,291.5C 199,292.833 198,294.167 197,295.5C 196.667,294.833 196.333,294.167 196,293.5C 194.509,295.004 192.676,295.837 190.5,296C 197.8,297.219 205.133,298.219 212.5,299C 208.644,299.177 204.977,299.677 201.5,300.5C 198.167,300.5 194.833,300.5 191.5,300.5C 187.846,300.058 184.179,299.724 180.5,299.5C 180.5,295.5 180.5,291.5 180.5,287.5C 189.167,287.5 197.833,287.5 206.5,287.5 Z"/></g>
<g><path style="opacity:1" fill="#e49121" d="M 240.5,286.5 C 242.514,286.392 244.18,287.058 245.5,288.5C 242.577,293.923 238.243,297.757 232.5,300C 222.172,300.5 211.839,300.666 201.5,300.5C 204.977,299.677 208.644,299.177 212.5,299C 205.133,298.219 197.8,297.219 190.5,296C 192.676,295.837 194.509,295.004 196,293.5C 196.333,294.167 196.667,294.833 197,295.5C 198,294.167 199,292.833 200,291.5C 200.333,292.167 200.667,292.833 201,293.5C 201.667,292.167 202.333,290.833 203,289.5C 203.974,291.878 204.641,291.544 205,288.5C 206.087,290.932 206.587,290.598 206.5,287.5C 218.012,287.828 229.346,287.495 240.5,286.5 Z"/></g>
<g><path style="opacity:1" fill="#d57915" d="M 40.5,301.5 C 41.0472,303.518 42.0472,305.351 43.5,307C 43.1667,307.333 42.8333,307.667 42.5,308C 45.8337,309.746 49.3337,310.913 53,311.5C 89.7009,311.504 127.534,311.17 166.5,310.5C 167.5,310.5 168.5,310.5 169.5,310.5C 170.492,310.328 171.158,310.662 171.5,311.5C 170.22,312.931 168.553,313.598 166.5,313.5C 129.167,312.167 91.8333,312.167 54.5,313.5C 50.6535,313.455 46.9869,312.622 43.5,311C 40.9712,308.358 39.9712,305.192 40.5,301.5 Z"/></g>
<g><path style="opacity:0.631" fill="#ca6f1b" d="M 54.5,313.5 C 91.8333,312.167 129.167,312.167 166.5,313.5C 129.891,314.418 92.5581,314.418 54.5,313.5 Z"/></g>
</svg>
