<?xml version="1.0" standalone="no"?>
<!DOCTYPE svg PUBLIC "-//W3C//DTD SVG 20010904//EN"
 "http://www.w3.org/TR/2001/REC-SVG-20010904/DTD/svg10.dtd">
<svg version="1.0" xmlns="http://www.w3.org/2000/svg"
 width="500.000000pt" height="495.000000pt" viewBox="0 0 500.000000 495.000000"
 preserveAspectRatio="xMidYMid meet">

<g transform="translate(0.000000,495.000000) scale(0.100000,-0.100000)"
fill="#000000" stroke="none">
<path d="M2505 3953 c-34 -9 -72 -41 -89 -77 -13 -28 -16 -73 -16 -269 l0
-234 -117 -48 c-184 -74 -233 -103 -233 -134 1 -61 7 -60 182 10 l163 66 5
-291 c3 -160 7 -291 8 -292 1 0 22 -1 47 -2 l45 0 0 578 c0 525 2 579 17 591
25 22 928 24 960 3 l23 -14 0 -635 0 -635 -57 -2 c-32 -1 -88 -1 -125 0 -37 1
-70 -3 -73 -8 -3 -5 2 -27 11 -49 l16 -41 218 0 217 0 28 -27 c31 -31 65 -97
65 -128 0 -33 -35 -100 -75 -144 l-38 -41 35 -53 c113 -169 107 -252 -26 -372
l-71 -64 18 -68 c9 -37 17 -79 17 -92 0 -88 -71 -177 -182 -230 -38 -18 -68
-39 -70 -49 -2 -9 11 -45 29 -80 50 -97 42 -144 -36 -215 -49 -44 -85 -51
-286 -51 -103 -1 -160 3 -181 12 -61 26 -82 132 -40 197 31 47 71 59 196 59
l114 1 8 39 c5 21 6 42 2 45 -3 3 -70 8 -150 11 -130 5 -146 7 -165 26 -29 30
-36 101 -14 147 31 65 50 71 235 77 l165 5 3 41 3 41 -68 6 c-113 11 -227 8
-279 -8 -62 -18 -121 -67 -145 -119 -24 -54 -24 -140 1 -186 10 -19 24 -45 31
-57 10 -19 7 -31 -20 -83 -30 -55 -32 -67 -28 -128 2 -37 7 -77 12 -89 l7 -23
-270 0 -271 0 -74 62 c-41 35 -108 93 -150 129 -90 78 -140 96 -291 106 l-96
6 0 522 0 522 84 5 c90 6 88 5 316 125 138 73 298 128 434 150 133 22 370 21
496 0 129 -23 130 -23 130 12 0 38 -26 67 -75 81 -70 21 -413 24 -548 6 -180
-25 -378 -98 -574 -211 -52 -31 -114 -60 -137 -65 -22 -5 -202 -10 -398 -10
-343 0 -358 -1 -368 -19 -14 -28 -14 -1197 1 -1256 12 -49 48 -87 98 -104 45
-15 387 -15 432 0 47 16 87 56 101 101 l11 38 91 -1 c120 0 157 -16 271 -114
l94 -80 -557 -6 c-306 -3 -558 -6 -559 -7 -2 -1 -3 -20 -3 -42 0 -35 3 -40 23
-39 12 0 535 -2 1162 -4 627 -2 1157 0 1178 4 59 10 144 74 178 133 23 41 29
63 29 112 0 34 -7 78 -15 97 -8 20 -15 38 -15 41 0 2 21 16 46 31 56 33 119
97 144 145 29 57 43 143 31 187 -18 65 -14 81 37 133 27 27 61 73 77 102 24
44 29 64 29 128 0 63 -4 84 -28 130 -15 30 -37 65 -49 78 l-21 22 23 22 c35
32 71 117 71 167 0 75 -20 122 -77 179 l-53 53 86 202 c163 381 170 405 118
446 -13 10 -100 51 -193 91 l-170 73 -3 251 c-3 288 -7 303 -81 337 -39 17
-71 19 -517 18 -261 -1 -484 -4 -495 -6z m1240 -764 c68 -28 130 -56 139 -62
17 -13 6 -41 -154 -417 l-58 -135 -38 0 -39 0 0 320 c0 176 1 326 3 333 6 18
13 16 147 -39z m-2195 -1557 c0 -444 -3 -591 -12 -600 -9 -9 -70 -12 -215 -12
-190 0 -203 1 -213 19 -6 13 -10 219 -10 600 l0 581 225 0 225 0 0 -588z"/>
<path d="M555 3120 c-3 -5 -1 -10 4 -10 6 0 11 5 11 10 0 6 -2 10 -4 10 -3 0
-8 -4 -11 -10z"/>
<path d="M540 3090 c0 -5 5 -10 11 -10 5 0 7 5 4 10 -3 6 -8 10 -11 10 -2 0
-4 -4 -4 -10z"/>
<path d="M2624 1975 c-71 -36 -163 -105 -192 -142 l-25 -33 29 0 c16 0 71 23
124 53 75 41 99 59 112 87 19 39 22 60 10 60 -4 0 -30 -11 -58 -25z"/>
</g>
</svg>
