<svg xmlns="http://www.w3.org/2000/svg" width="15.75" height="15.75" viewBox="0 0 15.75 15.75">
  <path id="Icon_awesome-phone-square-alt" data-name="Icon awesome-phone-square-alt" d="M14.063,1.125H1.688A1.688,1.688,0,0,0,0,2.813V15.188a1.688,1.688,0,0,0,1.687,1.688H14.063a1.688,1.688,0,0,0,1.687-1.687V2.813a1.688,1.688,0,0,0-1.688-1.687Zm-.576,10.806-.527,2.285a.527.527,0,0,1-.514.409A10.2,10.2,0,0,1,2.25,4.43a.552.552,0,0,1,.409-.514l2.285-.527a.641.641,0,0,1,.118-.014.572.572,0,0,1,.485.32L6.6,6.156a.629.629,0,0,1,.043.208.6.6,0,0,1-.193.408L5.119,7.861a8.153,8.153,0,0,0,3.895,3.895l1.09-1.332a.6.6,0,0,1,.408-.193.628.628,0,0,1,.208.043l2.461,1.055a.571.571,0,0,1,.32.485.612.612,0,0,1-.014.118Z" transform="translate(0 -1.125)" fill="#727272"/>
</svg>
