<svg xmlns="http://www.w3.org/2000/svg" width="27" height="27" viewBox="0 0 27 27">
  <g id="Group_21" data-name="Group 21" transform="translate(-252 -150.5)">
    <path id="Icon_ionic-ios-checkbox" data-name="Icon ionic-ios-checkbox" d="M29.25,4.5H6.75A2.248,2.248,0,0,0,4.5,6.75v22.5A2.248,2.248,0,0,0,6.75,31.5h22.5a2.248,2.248,0,0,0,2.25-2.25V6.75A2.248,2.248,0,0,0,29.25,4.5Zm-3.691,9.457-10.223-3L16.158,23.4s-1.638-1.24-1.645-1.24c-.12.12,1.2,1.627.823,1.627a1.231,1.231,0,0,1-.823-.4l-3.937-3.937a.28.28,0,0,1,0-.4L11.827,17.8a.278.278,0,0,1,.2-.084c.07,0-.253,6.019-.2,6.075l3.516-2.869,8.578-8.641a.278.278,0,0,1,.2-.084l-2.57,5.52c.077,0,3.948,5.618,4,5.674V13.549A.277.277,0,0,1,25.559,13.957Z" transform="translate(247.5 146)"/>
    <path id="Icon_metro-cross" data-name="Icon metro-cross" d="M14.662,11.731h0l-3.7-3.7,3.7-3.7h0a.382.382,0,0,0,0-.539L12.913,2.039a.382.382,0,0,0-.539,0h0l-3.7,3.7-3.7-3.7h0a.382.382,0,0,0-.539,0L2.682,3.788a.382.382,0,0,0,0,.539h0l3.7,3.7-3.7,3.7h0a.382.382,0,0,0,0,.539l1.749,1.749a.382.382,0,0,0,.539,0h0l3.7-3.7,3.7,3.7h0a.382.382,0,0,0,.539,0l1.749-1.749a.382.382,0,0,0,0-.539Z" transform="translate(257.328 155.971)" fill="#fff"/>
  </g>
</svg>
